<svg xmlns="http://www.w3.org/2000/svg" xmlns:xlink="http://www.w3.org/1999/xlink" width="1260" height="776.43"><rect width="1260" height="776.43" rx="5" ry="5" class="a"/><svg y="0%" x="0%"><circle cx="20" cy="20" r="6" fill="#ff5f58"/><circle cx="40" cy="20" r="6" fill="#ffbd2e"/><circle cx="60" cy="20" r="6" fill="#18c132"/></svg><svg height="716.43" viewBox="0 0 122 71.643" width="1220" x="15" xmlns="http://www.w3.org/2000/svg" xmlns:xlink="http://www.w3.org/1999/xlink" y="50"><style>@keyframes l{0%{transform:translateX(0)}2.1%{transform:translateX(-244px)}2.2%{transform:translateX(-366px)}5.7%{transform:translateX(-488px)}8.1%{transform:translateX(-610px)}11.4%{transform:translateX(-732px)}15.2%{transform:translateX(-854px)}16.3%{transform:translateX(-976px)}17.7%{transform:translateX(-1098px)}19%{transform:translateX(-1220px)}20.2%{transform:translateX(-1342px)}28.1%{transform:translateX(-1464px)}29.2%{transform:translateX(-1586px)}31.1%{transform:translateX(-1708px)}31.7%{transform:translateX(-1830px)}34%{transform:translateX(-1952px)}38.5%{transform:translateX(-2074px)}42.7%{transform:translateX(-2196px)}43.8%{transform:translateX(-2318px)}45.3%{transform:translateX(-2440px)}48.4%{transform:translateX(-2562px)}51.3%{transform:translateX(-2684px)}53.8%{transform:translateX(-2806px)}55%{transform:translateX(-2928px)}56.8%{transform:translateX(-3050px)}57.5%{transform:translateX(-3172px)}60.7%{transform:translateX(-3294px)}62.9%{transform:translateX(-3416px)}66.9%{transform:translateX(-3538px)}68.2%{transform:translateX(-3660px)}71.9%{transform:translateX(-3782px)}72.6%{transform:translateX(-3904px)}82.3%{transform:translateX(-4148px)}82.6%{transform:translateX(-4270px)}82.7%{transform:translateX(-4514px)}82.8%{transform:translateX(-4636px)}to{transform:translateX(-4758px)}}.a{fill:#282d35}.f,.g,.h,.i{fill:#fff;white-space:pre}.g,.h,.i{fill:#a8cc8c;font-weight:700}.h,.i{fill:#dbab79}.i{fill:#e88388}</style><g font-family="Monaco,Consolas,Menlo,'Bitstream Vera Sans Mono','Powerline Symbols',monospace" font-size="1.67"><defs><symbol id="1"><text y="1.67" class="f">[</text><text x="1.002" y="1.67" class="g">sadlaboka</text><text x="10.02" y="1.67" class="h">@</text><text x="11.022" y="1.67" class="f">HOME-PC</text><text x="19.038" y="1.67" class="f">fixtures]</text><text x="28.056" y="1.67" class="i">(main)</text><text x="34.068" y="1.67" class="f">$</text></symbol><symbol id="2"><text y="1.67" class="f">[</text><text x="1.002" y="1.67" class="g">sadlaboka</text><text x="10.02" y="1.67" class="h">@</text><text x="11.022" y="1.67" class="f">HOME-PC</text><text x="19.038" y="1.67" class="f">fixtures]</text><text x="28.056" y="1.67" class="i">(main)</text><text x="34.068" y="1.67" class="f">$</text><text x="36.072" y="1.67" class="f">gendiff</text></symbol><symbol id="3"><text y="1.67" class="f">[</text><text x="1.002" y="1.67" class="g">sadlaboka</text><text x="10.02" y="1.67" class="h">@</text><text x="11.022" y="1.67" class="f">HOME-PC</text><text x="19.038" y="1.67" class="f">fixtures]</text><text x="28.056" y="1.67" class="i">(main)</text><text x="34.068" y="1.67" class="f">$</text><text x="36.072" y="1.67" class="f">gendiff</text><text x="44.088" y="1.67" class="f">file1.json</text></symbol><symbol id="4"><text y="1.67" class="f">[</text><text x="1.002" y="1.67" class="g">sadlaboka</text><text x="10.02" y="1.67" class="h">@</text><text x="11.022" y="1.67" class="f">HOME-PC</text><text x="19.038" y="1.67" class="f">fixtures]</text><text x="28.056" y="1.67" class="i">(main)</text><text x="34.068" y="1.67" class="f">$</text><text x="36.072" y="1.67" class="f">gendiff</text><text x="44.088" y="1.67" class="f">file1.json</text><text x="55.11" y="1.67" class="f">file2.json</text></symbol><symbol id="5"><text y="1.67" class="f">{</text></symbol><symbol id="6"><text x="2.004" y="1.67" class="f">-</text><text x="4.008" y="1.67" class="f">follow:</text><text x="12.024" y="1.67" class="f">false</text></symbol><symbol id="7"><text x="4.008" y="1.67" class="f">host:</text><text x="10.02" y="1.67" class="f">hexlet.io</text></symbol><symbol id="8"><text x="2.004" y="1.67" class="f">-</text><text x="4.008" y="1.67" class="f">proxy:</text><text x="11.022" y="1.67" class="f">123.234.53.22</text></symbol><symbol id="9"><text x="2.004" y="1.67" class="f">-</text><text x="4.008" y="1.67" class="f">timeout:</text><text x="13.026" y="1.67" class="f">50</text></symbol><symbol id="10"><text x="2.004" y="1.67" class="f">+</text><text x="4.008" y="1.67" class="f">timeout:</text><text x="13.026" y="1.67" class="f">20</text></symbol><symbol id="11"><text x="2.004" y="1.67" class="f">+</text><text x="4.008" y="1.67" class="f">verbose:</text><text x="13.026" y="1.67" class="f">true</text></symbol><symbol id="12"><text y="1.67" class="f">}</text></symbol><symbol id="a"><path fill="transparent" d="M0 0h122v33H0z"/></symbol><symbol id="b"><path fill="#6f7683" d="M0 0h1.102v2.171H0z"/></symbol></defs><path class="a" d="M0 0h122v71.643H0z"/><g style="animation-duration:8.614919s;animation-iteration-count:infinite;animation-name:l;animation-timing-function:steps(1,end)"><svg width="4880"><svg><use xlink:href="#a"/><use xlink:href="#b" x="-.004"/></svg><svg x="122"><use xlink:href="#a"/><use xlink:href="#b" x="-.004"/></svg><svg x="244"><use xlink:href="#a"/><use xlink:href="#b" x="-.004"/></svg><svg x="366"><use xlink:href="#a"/><use xlink:href="#b" x="35.996"/><use xlink:href="#1"/></svg><svg x="488"><use xlink:href="#a"/><use xlink:href="#b" x="36.996"/><text y="1.67" class="f">[</text><text x="1.002" y="1.67" class="g">sadlaboka</text><text x="10.02" y="1.67" class="h">@</text><text x="11.022" y="1.67" class="f">HOME-PC</text><text x="19.038" y="1.67" class="f">fixtures]</text><text x="28.056" y="1.67" class="i">(main)</text><text x="34.068" y="1.67" class="f">$</text><text x="36.072" y="1.67" class="f">g</text></svg><svg x="610"><use xlink:href="#a"/><use xlink:href="#b" x="37.996"/><text y="1.67" class="f">[</text><text x="1.002" y="1.67" class="g">sadlaboka</text><text x="10.02" y="1.67" class="h">@</text><text x="11.022" y="1.67" class="f">HOME-PC</text><text x="19.038" y="1.67" class="f">fixtures]</text><text x="28.056" y="1.67" class="i">(main)</text><text x="34.068" y="1.67" class="f">$</text><text x="36.072" y="1.67" class="f">ge</text></svg><svg x="732"><use xlink:href="#a"/><use xlink:href="#b" x="38.996"/><text y="1.67" class="f">[</text><text x="1.002" y="1.67" class="g">sadlaboka</text><text x="10.02" y="1.67" class="h">@</text><text x="11.022" y="1.67" class="f">HOME-PC</text><text x="19.038" y="1.67" class="f">fixtures]</text><text x="28.056" y="1.67" class="i">(main)</text><text x="34.068" y="1.67" class="f">$</text><text x="36.072" y="1.67" class="f">gen</text></svg><svg x="854"><use xlink:href="#a"/><use xlink:href="#b" x="39.996"/><text y="1.67" class="f">[</text><text x="1.002" y="1.67" class="g">sadlaboka</text><text x="10.02" y="1.67" class="h">@</text><text x="11.022" y="1.67" class="f">HOME-PC</text><text x="19.038" y="1.67" class="f">fixtures]</text><text x="28.056" y="1.67" class="i">(main)</text><text x="34.068" y="1.67" class="f">$</text><text x="36.072" y="1.67" class="f">gend</text></svg><svg x="976"><use xlink:href="#a"/><use xlink:href="#b" x="40.996"/><text y="1.67" class="f">[</text><text x="1.002" y="1.67" class="g">sadlaboka</text><text x="10.02" y="1.67" class="h">@</text><text x="11.022" y="1.67" class="f">HOME-PC</text><text x="19.038" y="1.67" class="f">fixtures]</text><text x="28.056" y="1.67" class="i">(main)</text><text x="34.068" y="1.67" class="f">$</text><text x="36.072" y="1.67" class="f">gendi</text></svg><svg x="1098"><use xlink:href="#a"/><use xlink:href="#b" x="41.996"/><text y="1.67" class="f">[</text><text x="1.002" y="1.67" class="g">sadlaboka</text><text x="10.02" y="1.67" class="h">@</text><text x="11.022" y="1.67" class="f">HOME-PC</text><text x="19.038" y="1.67" class="f">fixtures]</text><text x="28.056" y="1.67" class="i">(main)</text><text x="34.068" y="1.67" class="f">$</text><text x="36.072" y="1.67" class="f">gendif</text></svg><svg x="1220"><use xlink:href="#a"/><use xlink:href="#b" x="42.996"/><use xlink:href="#2"/></svg><svg x="1342"><use xlink:href="#a"/><use xlink:href="#b" x="43.996"/><use xlink:href="#2"/></svg><svg x="1464"><use xlink:href="#a"/><use xlink:href="#b" x="44.996"/><text y="1.67" class="f">[</text><text x="1.002" y="1.67" class="g">sadlaboka</text><text x="10.02" y="1.67" class="h">@</text><text x="11.022" y="1.67" class="f">HOME-PC</text><text x="19.038" y="1.67" class="f">fixtures]</text><text x="28.056" y="1.67" class="i">(main)</text><text x="34.068" y="1.67" class="f">$</text><text x="36.072" y="1.67" class="f">gendiff</text><text x="44.088" y="1.67" class="f">f</text></svg><svg x="1586"><use xlink:href="#a"/><use xlink:href="#b" x="45.996"/><text y="1.67" class="f">[</text><text x="1.002" y="1.67" class="g">sadlaboka</text><text x="10.02" y="1.67" class="h">@</text><text x="11.022" y="1.67" class="f">HOME-PC</text><text x="19.038" y="1.67" class="f">fixtures]</text><text x="28.056" y="1.67" class="i">(main)</text><text x="34.068" y="1.67" class="f">$</text><text x="36.072" y="1.67" class="f">gendiff</text><text x="44.088" y="1.67" class="f">fi</text></svg><svg x="1708"><use xlink:href="#a"/><use xlink:href="#b" x="46.996"/><text y="1.67" class="f">[</text><text x="1.002" y="1.67" class="g">sadlaboka</text><text x="10.02" y="1.67" class="h">@</text><text x="11.022" y="1.67" class="f">HOME-PC</text><text x="19.038" y="1.67" class="f">fixtures]</text><text x="28.056" y="1.67" class="i">(main)</text><text x="34.068" y="1.67" class="f">$</text><text x="36.072" y="1.67" class="f">gendiff</text><text x="44.088" y="1.67" class="f">fil</text></svg><svg x="1830"><use xlink:href="#a"/><use xlink:href="#b" x="47.996"/><text y="1.67" class="f">[</text><text x="1.002" y="1.67" class="g">sadlaboka</text><text x="10.02" y="1.67" class="h">@</text><text x="11.022" y="1.67" class="f">HOME-PC</text><text x="19.038" y="1.67" class="f">fixtures]</text><text x="28.056" y="1.67" class="i">(main)</text><text x="34.068" y="1.67" class="f">$</text><text x="36.072" y="1.67" class="f">gendiff</text><text x="44.088" y="1.67" class="f">file</text></svg><svg x="1952"><use xlink:href="#a"/><use xlink:href="#b" x="48.996"/><text y="1.67" class="f">[</text><text x="1.002" y="1.67" class="g">sadlaboka</text><text x="10.02" y="1.67" class="h">@</text><text x="11.022" y="1.67" class="f">HOME-PC</text><text x="19.038" y="1.67" class="f">fixtures]</text><text x="28.056" y="1.67" class="i">(main)</text><text x="34.068" y="1.67" class="f">$</text><text x="36.072" y="1.67" class="f">gendiff</text><text x="44.088" y="1.67" class="f">file1</text></svg><svg x="2074"><use xlink:href="#a"/><use xlink:href="#b" x="49.996"/><text y="1.67" class="f">[</text><text x="1.002" y="1.67" class="g">sadlaboka</text><text x="10.02" y="1.67" class="h">@</text><text x="11.022" y="1.67" class="f">HOME-PC</text><text x="19.038" y="1.67" class="f">fixtures]</text><text x="28.056" y="1.67" class="i">(main)</text><text x="34.068" y="1.67" class="f">$</text><text x="36.072" y="1.67" class="f">gendiff</text><text x="44.088" y="1.67" class="f">file1.</text></svg><svg x="2196"><use xlink:href="#a"/><use xlink:href="#b" x="50.996"/><text y="1.67" class="f">[</text><text x="1.002" y="1.67" class="g">sadlaboka</text><text x="10.02" y="1.67" class="h">@</text><text x="11.022" y="1.67" class="f">HOME-PC</text><text x="19.038" y="1.67" class="f">fixtures]</text><text x="28.056" y="1.67" class="i">(main)</text><text x="34.068" y="1.67" class="f">$</text><text x="36.072" y="1.67" class="f">gendiff</text><text x="44.088" y="1.67" class="f">file1.j</text></svg><svg x="2318"><use xlink:href="#a"/><use xlink:href="#b" x="51.996"/><text y="1.67" class="f">[</text><text x="1.002" y="1.67" class="g">sadlaboka</text><text x="10.02" y="1.67" class="h">@</text><text x="11.022" y="1.67" class="f">HOME-PC</text><text x="19.038" y="1.67" class="f">fixtures]</text><text x="28.056" y="1.67" class="i">(main)</text><text x="34.068" y="1.67" class="f">$</text><text x="36.072" y="1.67" class="f">gendiff</text><text x="44.088" y="1.67" class="f">file1.js</text></svg><svg x="2440"><use xlink:href="#a"/><use xlink:href="#b" x="52.996"/><text y="1.67" class="f">[</text><text x="1.002" y="1.67" class="g">sadlaboka</text><text x="10.02" y="1.67" class="h">@</text><text x="11.022" y="1.67" class="f">HOME-PC</text><text x="19.038" y="1.67" class="f">fixtures]</text><text x="28.056" y="1.67" class="i">(main)</text><text x="34.068" y="1.67" class="f">$</text><text x="36.072" y="1.67" class="f">gendiff</text><text x="44.088" y="1.67" class="f">file1.jso</text></svg><svg x="2562"><use xlink:href="#a"/><use xlink:href="#b" x="53.996"/><use xlink:href="#3"/></svg><svg x="2684"><use xlink:href="#a"/><use xlink:href="#b" x="54.996"/><use xlink:href="#3"/></svg><svg x="2806"><use xlink:href="#a"/><use xlink:href="#b" x="55.996"/><text y="1.67" class="f">[</text><text x="1.002" y="1.67" class="g">sadlaboka</text><text x="10.02" y="1.67" class="h">@</text><text x="11.022" y="1.67" class="f">HOME-PC</text><text x="19.038" y="1.67" class="f">fixtures]</text><text x="28.056" y="1.67" class="i">(main)</text><text x="34.068" y="1.67" class="f">$</text><text x="36.072" y="1.67" class="f">gendiff</text><text x="44.088" y="1.67" class="f">file1.json</text><text x="55.11" y="1.67" class="f">f</text></svg><svg x="2928"><use xlink:href="#a"/><use xlink:href="#b" x="56.996"/><text y="1.67" class="f">[</text><text x="1.002" y="1.67" class="g">sadlaboka</text><text x="10.02" y="1.67" class="h">@</text><text x="11.022" y="1.67" class="f">HOME-PC</text><text x="19.038" y="1.67" class="f">fixtures]</text><text x="28.056" y="1.67" class="i">(main)</text><text x="34.068" y="1.67" class="f">$</text><text x="36.072" y="1.67" class="f">gendiff</text><text x="44.088" y="1.67" class="f">file1.json</text><text x="55.11" y="1.67" class="f">fi</text></svg><svg x="3050"><use xlink:href="#a"/><use xlink:href="#b" x="57.996"/><text y="1.67" class="f">[</text><text x="1.002" y="1.67" class="g">sadlaboka</text><text x="10.02" y="1.67" class="h">@</text><text x="11.022" y="1.67" class="f">HOME-PC</text><text x="19.038" y="1.67" class="f">fixtures]</text><text x="28.056" y="1.67" class="i">(main)</text><text x="34.068" y="1.67" class="f">$</text><text x="36.072" y="1.67" class="f">gendiff</text><text x="44.088" y="1.67" class="f">file1.json</text><text x="55.11" y="1.67" class="f">fil</text></svg><svg x="3172"><use xlink:href="#a"/><use xlink:href="#b" x="58.996"/><text y="1.67" class="f">[</text><text x="1.002" y="1.67" class="g">sadlaboka</text><text x="10.02" y="1.67" class="h">@</text><text x="11.022" y="1.67" class="f">HOME-PC</text><text x="19.038" y="1.67" class="f">fixtures]</text><text x="28.056" y="1.67" class="i">(main)</text><text x="34.068" y="1.67" class="f">$</text><text x="36.072" y="1.67" class="f">gendiff</text><text x="44.088" y="1.67" class="f">file1.json</text><text x="55.11" y="1.67" class="f">file</text></svg><svg x="3294"><use xlink:href="#a"/><use xlink:href="#b" x="59.996"/><text y="1.67" class="f">[</text><text x="1.002" y="1.67" class="g">sadlaboka</text><text x="10.02" y="1.67" class="h">@</text><text x="11.022" y="1.67" class="f">HOME-PC</text><text x="19.038" y="1.67" class="f">fixtures]</text><text x="28.056" y="1.67" class="i">(main)</text><text x="34.068" y="1.67" class="f">$</text><text x="36.072" y="1.67" class="f">gendiff</text><text x="44.088" y="1.67" class="f">file1.json</text><text x="55.11" y="1.67" class="f">file2</text></svg><svg x="3416"><use xlink:href="#a"/><use xlink:href="#b" x="60.996"/><text y="1.67" class="f">[</text><text x="1.002" y="1.67" class="g">sadlaboka</text><text x="10.02" y="1.67" class="h">@</text><text x="11.022" y="1.67" class="f">HOME-PC</text><text x="19.038" y="1.67" class="f">fixtures]</text><text x="28.056" y="1.67" class="i">(main)</text><text x="34.068" y="1.67" class="f">$</text><text x="36.072" y="1.67" class="f">gendiff</text><text x="44.088" y="1.67" class="f">file1.json</text><text x="55.11" y="1.67" class="f">file2.</text></svg><svg x="3538"><use xlink:href="#a"/><use xlink:href="#b" x="61.996"/><text y="1.67" class="f">[</text><text x="1.002" y="1.67" class="g">sadlaboka</text><text x="10.02" y="1.67" class="h">@</text><text x="11.022" y="1.67" class="f">HOME-PC</text><text x="19.038" y="1.67" class="f">fixtures]</text><text x="28.056" y="1.67" class="i">(main)</text><text x="34.068" y="1.67" class="f">$</text><text x="36.072" y="1.67" class="f">gendiff</text><text x="44.088" y="1.67" class="f">file1.json</text><text x="55.11" y="1.67" class="f">file2.j</text></svg><svg x="3660"><use xlink:href="#a"/><use xlink:href="#b" x="62.996"/><text y="1.67" class="f">[</text><text x="1.002" y="1.67" class="g">sadlaboka</text><text x="10.02" y="1.67" class="h">@</text><text x="11.022" y="1.67" class="f">HOME-PC</text><text x="19.038" y="1.67" class="f">fixtures]</text><text x="28.056" y="1.67" class="i">(main)</text><text x="34.068" y="1.67" class="f">$</text><text x="36.072" y="1.67" class="f">gendiff</text><text x="44.088" y="1.67" class="f">file1.json</text><text x="55.11" y="1.67" class="f">file2.js</text></svg><svg x="3782"><use xlink:href="#a"/><use xlink:href="#b" x="63.996"/><text y="1.67" class="f">[</text><text x="1.002" y="1.67" class="g">sadlaboka</text><text x="10.02" y="1.67" class="h">@</text><text x="11.022" y="1.67" class="f">HOME-PC</text><text x="19.038" y="1.67" class="f">fixtures]</text><text x="28.056" y="1.67" class="i">(main)</text><text x="34.068" y="1.67" class="f">$</text><text x="36.072" y="1.67" class="f">gendiff</text><text x="44.088" y="1.67" class="f">file1.json</text><text x="55.11" y="1.67" class="f">file2.jso</text></svg><svg x="3904"><use xlink:href="#a"/><use xlink:href="#b" x="64.996"/><use xlink:href="#4"/></svg><svg x="4026"><use xlink:href="#a"/><use xlink:href="#b" x="-.004" y="2.146"/><use xlink:href="#4"/></svg><svg x="4148"><use xlink:href="#a"/><use xlink:href="#b" x="-.004" y="2.146"/><use xlink:href="#4"/></svg><svg x="4270"><use xlink:href="#a"/><use xlink:href="#b" x="-.004" y="19.514"/><use xlink:href="#4"/><use xlink:href="#5" y="2.171"/><use xlink:href="#6" y="4.342"/><use xlink:href="#7" y="6.513"/><use xlink:href="#8" y="8.684"/><use xlink:href="#9" y="10.855"/><use xlink:href="#10" y="13.026"/><use xlink:href="#11" y="15.197"/><use xlink:href="#12" y="17.368"/></svg><svg x="4392"><use xlink:href="#a"/><use xlink:href="#b" x="-.004" y="19.514"/><use xlink:href="#4"/><use xlink:href="#5" y="2.171"/><use xlink:href="#6" y="4.342"/><use xlink:href="#7" y="6.513"/><use xlink:href="#8" y="8.684"/><use xlink:href="#9" y="10.855"/><use xlink:href="#10" y="13.026"/><use xlink:href="#11" y="15.197"/><use xlink:href="#12" y="17.368"/></svg><svg x="4514"><use xlink:href="#a"/><use xlink:href="#b" x="-.004" y="19.514"/><use xlink:href="#4"/><use xlink:href="#5" y="2.171"/><use xlink:href="#6" y="4.342"/><use xlink:href="#7" y="6.513"/><use xlink:href="#8" y="8.684"/><use xlink:href="#9" y="10.855"/><use xlink:href="#10" y="13.026"/><use xlink:href="#11" y="15.197"/><use xlink:href="#12" y="17.368"/></svg><svg x="4636"><use xlink:href="#a"/><use xlink:href="#b" x="35.996" y="19.514"/><use xlink:href="#4"/><use xlink:href="#5" y="2.171"/><use xlink:href="#6" y="4.342"/><use xlink:href="#7" y="6.513"/><use xlink:href="#8" y="8.684"/><use xlink:href="#9" y="10.855"/><use xlink:href="#10" y="13.026"/><use xlink:href="#11" y="15.197"/><use xlink:href="#12" y="17.368"/><use xlink:href="#1" y="19.539"/></svg><svg x="4758"><use xlink:href="#a"/><use xlink:href="#b" x="-.004" y="23.856"/><use xlink:href="#4"/><use xlink:href="#5" y="2.171"/><use xlink:href="#6" y="4.342"/><use xlink:href="#7" y="6.513"/><use xlink:href="#8" y="8.684"/><use xlink:href="#9" y="10.855"/><use xlink:href="#10" y="13.026"/><use xlink:href="#11" y="15.197"/><use xlink:href="#12" y="17.368"/><use xlink:href="#1" y="19.539"/><text y="23.38" class="f">exit</text></svg></svg></g></g></svg></svg>