<svg xmlns="http://www.w3.org/2000/svg" xmlns:xlink="http://www.w3.org/1999/xlink" width="1680" height="1058.66"><rect width="1680" height="1058.66" rx="5" ry="5" class="a"/><svg y="0%" x="0%"><circle cx="20" cy="20" r="6" fill="#ff5f58"/><circle cx="40" cy="20" r="6" fill="#ffbd2e"/><circle cx="60" cy="20" r="6" fill="#18c132"/></svg><svg height="998.66" viewBox="0 0 164 99.866" width="1640" x="15" xmlns="http://www.w3.org/2000/svg" xmlns:xlink="http://www.w3.org/1999/xlink" y="50"><style>@keyframes l{0%{transform:translateX(0)}1.6%{transform:translateX(-492px)}11.7%{transform:translateX(-656px)}12.2%{transform:translateX(-820px)}14.2%{transform:translateX(-984px)}16.9%{transform:translateX(-1148px)}17.4%{transform:translateX(-1312px)}18.1%{transform:translateX(-1476px)}22.1%{transform:translateX(-1640px)}23.4%{transform:translateX(-1804px)}24.5%{transform:translateX(-1968px)}29.7%{transform:translateX(-2132px)}36.2%{transform:translateX(-2296px)}36.8%{transform:translateX(-2460px)}38.3%{transform:translateX(-2624px)}39%{transform:translateX(-2788px)}46.7%{transform:translateX(-2952px)}48.9%{transform:translateX(-3116px)}54.2%{transform:translateX(-3280px)}55.5%{transform:translateX(-3444px)}56.1%{transform:translateX(-3608px)}56.8%{transform:translateX(-3772px)}58.3%{transform:translateX(-3936px)}61%{transform:translateX(-4100px)}61.6%{transform:translateX(-4264px)}63.2%{transform:translateX(-4428px)}63.7%{transform:translateX(-4592px)}66.8%{transform:translateX(-4756px)}68.1%{transform:translateX(-4920px)}70.8%{transform:translateX(-5084px)}72.7%{transform:translateX(-5248px)}73.9%{transform:translateX(-5412px)}74.6%{transform:translateX(-5576px)}85.6%{transform:translateX(-5904px)}86%{transform:translateX(-6068px)}86.1%{transform:translateX(-6560px)}to{transform:translateX(-6724px)}}.a{fill:#282d35}.f,.g,.h,.i{fill:#fff;white-space:pre}.g,.h,.i{fill:#a8cc8c;font-weight:700}.h,.i{fill:#dbab79}.i{fill:#e88388}</style><g font-family="Monaco,Consolas,Menlo,'Bitstream Vera Sans Mono','Powerline Symbols',monospace" font-size="1.67"><defs><symbol id="1"><text y="1.67" class="f">[</text><text x="1.002" y="1.67" class="g">sadlaboka</text><text x="10.02" y="1.67" class="h">@</text><text x="11.022" y="1.67" class="f">HOME-PC</text><text x="19.038" y="1.67" class="f">fixtures]</text><text x="28.056" y="1.67" class="i">(main)</text><text x="34.068" y="1.67" class="f">$</text></symbol><symbol id="2"><text y="1.67" class="f">[</text><text x="1.002" y="1.67" class="g">sadlaboka</text><text x="10.02" y="1.67" class="h">@</text><text x="11.022" y="1.67" class="f">HOME-PC</text><text x="19.038" y="1.67" class="f">fixtures]</text><text x="28.056" y="1.67" class="i">(main)</text><text x="34.068" y="1.67" class="f">$</text><text x="36.072" y="1.67" class="f">ge</text></symbol><symbol id="3"><text y="1.67" class="f">[</text><text x="1.002" y="1.67" class="g">sadlaboka</text><text x="10.02" y="1.67" class="h">@</text><text x="11.022" y="1.67" class="f">HOME-PC</text><text x="19.038" y="1.67" class="f">fixtures]</text><text x="28.056" y="1.67" class="i">(main)</text><text x="34.068" y="1.67" class="f">$</text><text x="36.072" y="1.67" class="f">gendiff</text></symbol><symbol id="4"><text y="1.67" class="f">[</text><text x="1.002" y="1.67" class="g">sadlaboka</text><text x="10.02" y="1.67" class="h">@</text><text x="11.022" y="1.67" class="f">HOME-PC</text><text x="19.038" y="1.67" class="f">fixtures]</text><text x="28.056" y="1.67" class="i">(main)</text><text x="34.068" y="1.67" class="f">$</text><text x="36.072" y="1.67" class="f">gendiff</text><text x="44.088" y="1.67" class="f">file3.json</text></symbol><symbol id="5"><text y="1.67" class="f">[</text><text x="1.002" y="1.67" class="g">sadlaboka</text><text x="10.02" y="1.67" class="h">@</text><text x="11.022" y="1.67" class="f">HOME-PC</text><text x="19.038" y="1.67" class="f">fixtures]</text><text x="28.056" y="1.67" class="i">(main)</text><text x="34.068" y="1.67" class="f">$</text><text x="36.072" y="1.67" class="f">gendiff</text><text x="44.088" y="1.67" class="f">file3.json</text><text x="55.11" y="1.67" class="f">file4.json</text></symbol><symbol id="6"><text y="1.67" class="f">{</text></symbol><symbol id="7"><text x="4.008" y="1.67" class="f">common:</text><text x="12.024" y="1.67" class="f">{</text></symbol><symbol id="8"><text x="6.012" y="1.67" class="f">+</text><text x="8.016" y="1.67" class="f">follow:</text><text x="16.032" y="1.67" class="f">false</text></symbol><symbol id="9"><text x="8.016" y="1.67" class="f">setting1:</text><text x="18.036" y="1.67" class="f">Value</text><text x="24.048" y="1.67" class="f">1</text></symbol><symbol id="10"><text x="6.012" y="1.67" class="f">-</text><text x="8.016" y="1.67" class="f">setting2:</text><text x="18.036" y="1.67" class="f">200</text></symbol><symbol id="11"><text x="6.012" y="1.67" class="f">-</text><text x="8.016" y="1.67" class="f">setting3:</text><text x="18.036" y="1.67" class="f">true</text></symbol><symbol id="12"><text x="6.012" y="1.67" class="f">+</text><text x="8.016" y="1.67" class="f">setting3:</text><text x="18.036" y="1.67" class="f">null</text></symbol><symbol id="13"><text x="6.012" y="1.67" class="f">+</text><text x="8.016" y="1.67" class="f">setting4:</text><text x="18.036" y="1.67" class="f">blah</text><text x="23.046" y="1.67" class="f">blah</text></symbol><symbol id="14"><text x="6.012" y="1.67" class="f">+</text><text x="8.016" y="1.67" class="f">setting5:</text><text x="18.036" y="1.67" class="f">{</text></symbol><symbol id="15"><text x="12.024" y="1.67" class="f">key5:</text><text x="18.036" y="1.67" class="f">value5</text></symbol><symbol id="16"><text x="8.016" y="1.67" class="f">}</text></symbol><symbol id="17"><text x="8.016" y="1.67" class="f">setting6:</text><text x="18.036" y="1.67" class="f">{</text></symbol><symbol id="18"><text x="12.024" y="1.67" class="f">doge:</text><text x="18.036" y="1.67" class="f">{</text></symbol><symbol id="19"><text x="14.028" y="1.67" class="f">-</text><text x="16.032" y="1.67" class="f">wow:</text></symbol><symbol id="20"><text x="14.028" y="1.67" class="f">+</text><text x="16.032" y="1.67" class="f">wow:</text><text x="21.042" y="1.67" class="f">so</text><text x="24.048" y="1.67" class="f">much</text></symbol><symbol id="21"><text x="12.024" y="1.67" class="f">}</text></symbol><symbol id="22"><text x="12.024" y="1.67" class="f">key:</text><text x="17.034" y="1.67" class="f">value</text></symbol><symbol id="23"><text x="10.02" y="1.67" class="f">+</text><text x="12.024" y="1.67" class="f">ops:</text><text x="17.034" y="1.67" class="f">vops</text></symbol><symbol id="24"><text x="4.008" y="1.67" class="f">}</text></symbol><symbol id="25"><text x="4.008" y="1.67" class="f">group1:</text><text x="12.024" y="1.67" class="f">{</text></symbol><symbol id="26"><text x="6.012" y="1.67" class="f">-</text><text x="8.016" y="1.67" class="f">baz:</text><text x="13.026" y="1.67" class="f">bas</text></symbol><symbol id="27"><text x="6.012" y="1.67" class="f">+</text><text x="8.016" y="1.67" class="f">baz:</text><text x="13.026" y="1.67" class="f">bars</text></symbol><symbol id="28"><text x="8.016" y="1.67" class="f">foo:</text><text x="13.026" y="1.67" class="f">bar</text></symbol><symbol id="29"><text x="6.012" y="1.67" class="f">-</text><text x="8.016" y="1.67" class="f">nest:</text><text x="14.028" y="1.67" class="f">{</text></symbol><symbol id="30"><text x="6.012" y="1.67" class="f">+</text><text x="8.016" y="1.67" class="f">nest:</text><text x="14.028" y="1.67" class="f">str</text></symbol><symbol id="31"><text x="2.004" y="1.67" class="f">-</text><text x="4.008" y="1.67" class="f">group2:</text><text x="12.024" y="1.67" class="f">{</text></symbol><symbol id="32"><text x="8.016" y="1.67" class="f">abc:</text><text x="13.026" y="1.67" class="f">12345</text></symbol><symbol id="33"><text x="8.016" y="1.67" class="f">deep:</text><text x="14.028" y="1.67" class="f">{</text></symbol><symbol id="34"><text x="12.024" y="1.67" class="f">id:</text><text x="16.032" y="1.67" class="f">45</text></symbol><symbol id="35"><text x="2.004" y="1.67" class="f">+</text><text x="4.008" y="1.67" class="f">group3:</text><text x="12.024" y="1.67" class="f">{</text></symbol><symbol id="36"><text x="12.024" y="1.67" class="f">id:</text><text x="16.032" y="1.67" class="f">{</text></symbol><symbol id="37"><text x="16.032" y="1.67" class="f">number:</text><text x="24.048" y="1.67" class="f">45</text></symbol><symbol id="38"><text x="8.016" y="1.67" class="f">fee:</text><text x="13.026" y="1.67" class="f">100500</text></symbol><symbol id="39"><text y="1.67" class="f">}</text></symbol><symbol id="a"><path fill="transparent" d="M0 0h164v46H0z"/></symbol><symbol id="b"><path fill="#6f7683" d="M0 0h1.102v2.171H0z"/></symbol></defs><path class="a" d="M0 0h164v99.866H0z"/><g style="animation-duration:12.687443s;animation-iteration-count:infinite;animation-name:l;animation-timing-function:steps(1,end)"><svg width="6888"><svg><use xlink:href="#a"/><use xlink:href="#b" x="-.004"/></svg><svg x="164"><use xlink:href="#a"/><use xlink:href="#b" x="-.004"/></svg><svg x="328"><use xlink:href="#a"/><use xlink:href="#b" x="-.004"/></svg><svg x="492"><use xlink:href="#a"/><use xlink:href="#b" x="35.996"/><use xlink:href="#1"/></svg><svg x="656"><use xlink:href="#a"/><use xlink:href="#b" x="36.996"/><text y="1.67" class="f">[</text><text x="1.002" y="1.67" class="g">sadlaboka</text><text x="10.02" y="1.67" class="h">@</text><text x="11.022" y="1.67" class="f">HOME-PC</text><text x="19.038" y="1.67" class="f">fixtures]</text><text x="28.056" y="1.67" class="i">(main)</text><text x="34.068" y="1.67" class="f">$</text><text x="36.072" y="1.67" class="f">g</text></svg><svg x="820"><use xlink:href="#a"/><use xlink:href="#b" x="37.996"/><use xlink:href="#2"/></svg><svg x="984"><use xlink:href="#a"/><use xlink:href="#b" x="38.996"/><text y="1.67" class="f">[</text><text x="1.002" y="1.67" class="g">sadlaboka</text><text x="10.02" y="1.67" class="h">@</text><text x="11.022" y="1.67" class="f">HOME-PC</text><text x="19.038" y="1.67" class="f">fixtures]</text><text x="28.056" y="1.67" class="i">(main)</text><text x="34.068" y="1.67" class="f">$</text><text x="36.072" y="1.67" class="f">ged</text></svg><svg x="1148"><use xlink:href="#a"/><use xlink:href="#b" x="37.996"/><use xlink:href="#2"/></svg><svg x="1312"><use xlink:href="#a"/><use xlink:href="#b" x="38.996"/><text y="1.67" class="f">[</text><text x="1.002" y="1.67" class="g">sadlaboka</text><text x="10.02" y="1.67" class="h">@</text><text x="11.022" y="1.67" class="f">HOME-PC</text><text x="19.038" y="1.67" class="f">fixtures]</text><text x="28.056" y="1.67" class="i">(main)</text><text x="34.068" y="1.67" class="f">$</text><text x="36.072" y="1.67" class="f">gen</text></svg><svg x="1476"><use xlink:href="#a"/><use xlink:href="#b" x="39.996"/><text y="1.67" class="f">[</text><text x="1.002" y="1.67" class="g">sadlaboka</text><text x="10.02" y="1.67" class="h">@</text><text x="11.022" y="1.67" class="f">HOME-PC</text><text x="19.038" y="1.67" class="f">fixtures]</text><text x="28.056" y="1.67" class="i">(main)</text><text x="34.068" y="1.67" class="f">$</text><text x="36.072" y="1.67" class="f">gend</text></svg><svg x="1640"><use xlink:href="#a"/><use xlink:href="#b" x="40.996"/><text y="1.67" class="f">[</text><text x="1.002" y="1.67" class="g">sadlaboka</text><text x="10.02" y="1.67" class="h">@</text><text x="11.022" y="1.67" class="f">HOME-PC</text><text x="19.038" y="1.67" class="f">fixtures]</text><text x="28.056" y="1.67" class="i">(main)</text><text x="34.068" y="1.67" class="f">$</text><text x="36.072" y="1.67" class="f">gendi</text></svg><svg x="1804"><use xlink:href="#a"/><use xlink:href="#b" x="41.996"/><text y="1.67" class="f">[</text><text x="1.002" y="1.67" class="g">sadlaboka</text><text x="10.02" y="1.67" class="h">@</text><text x="11.022" y="1.67" class="f">HOME-PC</text><text x="19.038" y="1.67" class="f">fixtures]</text><text x="28.056" y="1.67" class="i">(main)</text><text x="34.068" y="1.67" class="f">$</text><text x="36.072" y="1.67" class="f">gendif</text></svg><svg x="1968"><use xlink:href="#a"/><use xlink:href="#b" x="42.996"/><use xlink:href="#3"/></svg><svg x="2132"><use xlink:href="#a"/><use xlink:href="#b" x="43.996"/><use xlink:href="#3"/></svg><svg x="2296"><use xlink:href="#a"/><use xlink:href="#b" x="44.996"/><text y="1.67" class="f">[</text><text x="1.002" y="1.67" class="g">sadlaboka</text><text x="10.02" y="1.67" class="h">@</text><text x="11.022" y="1.67" class="f">HOME-PC</text><text x="19.038" y="1.67" class="f">fixtures]</text><text x="28.056" y="1.67" class="i">(main)</text><text x="34.068" y="1.67" class="f">$</text><text x="36.072" y="1.67" class="f">gendiff</text><text x="44.088" y="1.67" class="f">f</text></svg><svg x="2460"><use xlink:href="#a"/><use xlink:href="#b" x="45.996"/><text y="1.67" class="f">[</text><text x="1.002" y="1.67" class="g">sadlaboka</text><text x="10.02" y="1.67" class="h">@</text><text x="11.022" y="1.67" class="f">HOME-PC</text><text x="19.038" y="1.67" class="f">fixtures]</text><text x="28.056" y="1.67" class="i">(main)</text><text x="34.068" y="1.67" class="f">$</text><text x="36.072" y="1.67" class="f">gendiff</text><text x="44.088" y="1.67" class="f">fi</text></svg><svg x="2624"><use xlink:href="#a"/><use xlink:href="#b" x="46.996"/><text y="1.67" class="f">[</text><text x="1.002" y="1.67" class="g">sadlaboka</text><text x="10.02" y="1.67" class="h">@</text><text x="11.022" y="1.67" class="f">HOME-PC</text><text x="19.038" y="1.67" class="f">fixtures]</text><text x="28.056" y="1.67" class="i">(main)</text><text x="34.068" y="1.67" class="f">$</text><text x="36.072" y="1.67" class="f">gendiff</text><text x="44.088" y="1.67" class="f">fil</text></svg><svg x="2788"><use xlink:href="#a"/><use xlink:href="#b" x="47.996"/><text y="1.67" class="f">[</text><text x="1.002" y="1.67" class="g">sadlaboka</text><text x="10.02" y="1.67" class="h">@</text><text x="11.022" y="1.67" class="f">HOME-PC</text><text x="19.038" y="1.67" class="f">fixtures]</text><text x="28.056" y="1.67" class="i">(main)</text><text x="34.068" y="1.67" class="f">$</text><text x="36.072" y="1.67" class="f">gendiff</text><text x="44.088" y="1.67" class="f">file</text></svg><svg x="2952"><use xlink:href="#a"/><use xlink:href="#b" x="48.996"/><text y="1.67" class="f">[</text><text x="1.002" y="1.67" class="g">sadlaboka</text><text x="10.02" y="1.67" class="h">@</text><text x="11.022" y="1.67" class="f">HOME-PC</text><text x="19.038" y="1.67" class="f">fixtures]</text><text x="28.056" y="1.67" class="i">(main)</text><text x="34.068" y="1.67" class="f">$</text><text x="36.072" y="1.67" class="f">gendiff</text><text x="44.088" y="1.67" class="f">file3</text></svg><svg x="3116"><use xlink:href="#a"/><use xlink:href="#b" x="49.996"/><text y="1.67" class="f">[</text><text x="1.002" y="1.67" class="g">sadlaboka</text><text x="10.02" y="1.67" class="h">@</text><text x="11.022" y="1.67" class="f">HOME-PC</text><text x="19.038" y="1.67" class="f">fixtures]</text><text x="28.056" y="1.67" class="i">(main)</text><text x="34.068" y="1.67" class="f">$</text><text x="36.072" y="1.67" class="f">gendiff</text><text x="44.088" y="1.67" class="f">file3.</text></svg><svg x="3280"><use xlink:href="#a"/><use xlink:href="#b" x="50.996"/><text y="1.67" class="f">[</text><text x="1.002" y="1.67" class="g">sadlaboka</text><text x="10.02" y="1.67" class="h">@</text><text x="11.022" y="1.67" class="f">HOME-PC</text><text x="19.038" y="1.67" class="f">fixtures]</text><text x="28.056" y="1.67" class="i">(main)</text><text x="34.068" y="1.67" class="f">$</text><text x="36.072" y="1.67" class="f">gendiff</text><text x="44.088" y="1.67" class="f">file3.j</text></svg><svg x="3444"><use xlink:href="#a"/><use xlink:href="#b" x="51.996"/><text y="1.67" class="f">[</text><text x="1.002" y="1.67" class="g">sadlaboka</text><text x="10.02" y="1.67" class="h">@</text><text x="11.022" y="1.67" class="f">HOME-PC</text><text x="19.038" y="1.67" class="f">fixtures]</text><text x="28.056" y="1.67" class="i">(main)</text><text x="34.068" y="1.67" class="f">$</text><text x="36.072" y="1.67" class="f">gendiff</text><text x="44.088" y="1.67" class="f">file3.js</text></svg><svg x="3608"><use xlink:href="#a"/><use xlink:href="#b" x="52.996"/><text y="1.67" class="f">[</text><text x="1.002" y="1.67" class="g">sadlaboka</text><text x="10.02" y="1.67" class="h">@</text><text x="11.022" y="1.67" class="f">HOME-PC</text><text x="19.038" y="1.67" class="f">fixtures]</text><text x="28.056" y="1.67" class="i">(main)</text><text x="34.068" y="1.67" class="f">$</text><text x="36.072" y="1.67" class="f">gendiff</text><text x="44.088" y="1.67" class="f">file3.jso</text></svg><svg x="3772"><use xlink:href="#a"/><use xlink:href="#b" x="53.996"/><use xlink:href="#4"/></svg><svg x="3936"><use xlink:href="#a"/><use xlink:href="#b" x="54.996"/><use xlink:href="#4"/></svg><svg x="4100"><use xlink:href="#a"/><use xlink:href="#b" x="55.996"/><text y="1.67" class="f">[</text><text x="1.002" y="1.67" class="g">sadlaboka</text><text x="10.02" y="1.67" class="h">@</text><text x="11.022" y="1.67" class="f">HOME-PC</text><text x="19.038" y="1.67" class="f">fixtures]</text><text x="28.056" y="1.67" class="i">(main)</text><text x="34.068" y="1.67" class="f">$</text><text x="36.072" y="1.67" class="f">gendiff</text><text x="44.088" y="1.67" class="f">file3.json</text><text x="55.11" y="1.67" class="f">f</text></svg><svg x="4264"><use xlink:href="#a"/><use xlink:href="#b" x="56.996"/><text y="1.67" class="f">[</text><text x="1.002" y="1.67" class="g">sadlaboka</text><text x="10.02" y="1.67" class="h">@</text><text x="11.022" y="1.67" class="f">HOME-PC</text><text x="19.038" y="1.67" class="f">fixtures]</text><text x="28.056" y="1.67" class="i">(main)</text><text x="34.068" y="1.67" class="f">$</text><text x="36.072" y="1.67" class="f">gendiff</text><text x="44.088" y="1.67" class="f">file3.json</text><text x="55.11" y="1.67" class="f">fi</text></svg><svg x="4428"><use xlink:href="#a"/><use xlink:href="#b" x="57.996"/><text y="1.67" class="f">[</text><text x="1.002" y="1.67" class="g">sadlaboka</text><text x="10.02" y="1.67" class="h">@</text><text x="11.022" y="1.67" class="f">HOME-PC</text><text x="19.038" y="1.67" class="f">fixtures]</text><text x="28.056" y="1.67" class="i">(main)</text><text x="34.068" y="1.67" class="f">$</text><text x="36.072" y="1.67" class="f">gendiff</text><text x="44.088" y="1.67" class="f">file3.json</text><text x="55.11" y="1.67" class="f">fil</text></svg><svg x="4592"><use xlink:href="#a"/><use xlink:href="#b" x="58.996"/><text y="1.67" class="f">[</text><text x="1.002" y="1.67" class="g">sadlaboka</text><text x="10.02" y="1.67" class="h">@</text><text x="11.022" y="1.67" class="f">HOME-PC</text><text x="19.038" y="1.67" class="f">fixtures]</text><text x="28.056" y="1.67" class="i">(main)</text><text x="34.068" y="1.67" class="f">$</text><text x="36.072" y="1.67" class="f">gendiff</text><text x="44.088" y="1.67" class="f">file3.json</text><text x="55.11" y="1.67" class="f">file</text></svg><svg x="4756"><use xlink:href="#a"/><use xlink:href="#b" x="59.996"/><text y="1.67" class="f">[</text><text x="1.002" y="1.67" class="g">sadlaboka</text><text x="10.02" y="1.67" class="h">@</text><text x="11.022" y="1.67" class="f">HOME-PC</text><text x="19.038" y="1.67" class="f">fixtures]</text><text x="28.056" y="1.67" class="i">(main)</text><text x="34.068" y="1.67" class="f">$</text><text x="36.072" y="1.67" class="f">gendiff</text><text x="44.088" y="1.67" class="f">file3.json</text><text x="55.11" y="1.67" class="f">file4</text></svg><svg x="4920"><use xlink:href="#a"/><use xlink:href="#b" x="60.996"/><text y="1.67" class="f">[</text><text x="1.002" y="1.67" class="g">sadlaboka</text><text x="10.02" y="1.67" class="h">@</text><text x="11.022" y="1.67" class="f">HOME-PC</text><text x="19.038" y="1.67" class="f">fixtures]</text><text x="28.056" y="1.67" class="i">(main)</text><text x="34.068" y="1.67" class="f">$</text><text x="36.072" y="1.67" class="f">gendiff</text><text x="44.088" y="1.67" class="f">file3.json</text><text x="55.11" y="1.67" class="f">file4.</text></svg><svg x="5084"><use xlink:href="#a"/><use xlink:href="#b" x="61.996"/><text y="1.67" class="f">[</text><text x="1.002" y="1.67" class="g">sadlaboka</text><text x="10.02" y="1.67" class="h">@</text><text x="11.022" y="1.67" class="f">HOME-PC</text><text x="19.038" y="1.67" class="f">fixtures]</text><text x="28.056" y="1.67" class="i">(main)</text><text x="34.068" y="1.67" class="f">$</text><text x="36.072" y="1.67" class="f">gendiff</text><text x="44.088" y="1.67" class="f">file3.json</text><text x="55.11" y="1.67" class="f">file4.j</text></svg><svg x="5248"><use xlink:href="#a"/><use xlink:href="#b" x="62.996"/><text y="1.67" class="f">[</text><text x="1.002" y="1.67" class="g">sadlaboka</text><text x="10.02" y="1.67" class="h">@</text><text x="11.022" y="1.67" class="f">HOME-PC</text><text x="19.038" y="1.67" class="f">fixtures]</text><text x="28.056" y="1.67" class="i">(main)</text><text x="34.068" y="1.67" class="f">$</text><text x="36.072" y="1.67" class="f">gendiff</text><text x="44.088" y="1.67" class="f">file3.json</text><text x="55.11" y="1.67" class="f">file4.js</text></svg><svg x="5412"><use xlink:href="#a"/><use xlink:href="#b" x="63.996"/><text y="1.67" class="f">[</text><text x="1.002" y="1.67" class="g">sadlaboka</text><text x="10.02" y="1.67" class="h">@</text><text x="11.022" y="1.67" class="f">HOME-PC</text><text x="19.038" y="1.67" class="f">fixtures]</text><text x="28.056" y="1.67" class="i">(main)</text><text x="34.068" y="1.67" class="f">$</text><text x="36.072" y="1.67" class="f">gendiff</text><text x="44.088" y="1.67" class="f">file3.json</text><text x="55.11" y="1.67" class="f">file4.jso</text></svg><svg x="5576"><use xlink:href="#a"/><use xlink:href="#b" x="64.996"/><use xlink:href="#5"/></svg><svg x="5740"><use xlink:href="#a"/><use xlink:href="#b" x="-.004" y="2.146"/><use xlink:href="#5"/></svg><svg x="5904"><use xlink:href="#a"/><use xlink:href="#b" x="-.004" y="2.146"/><use xlink:href="#5"/></svg><svg x="6068"><use xlink:href="#a"/><use xlink:href="#b" x="-.004" y="97.67"/><use xlink:href="#5"/><use xlink:href="#6" y="2.171"/><use xlink:href="#7" y="4.342"/><use xlink:href="#8" y="6.513"/><use xlink:href="#9" y="8.684"/><use xlink:href="#10" y="10.855"/><use xlink:href="#11" y="13.026"/><use xlink:href="#12" y="15.197"/><use xlink:href="#13" y="17.368"/><use xlink:href="#14" y="19.539"/><use xlink:href="#15" y="21.71"/><use xlink:href="#16" y="23.881"/><use xlink:href="#17" y="26.052"/><use xlink:href="#18" y="28.223"/><use xlink:href="#19" y="30.394"/><use xlink:href="#20" y="32.565"/><use xlink:href="#21" y="34.736"/><use xlink:href="#22" y="36.907"/><use xlink:href="#23" y="39.078"/><use xlink:href="#16" y="41.249"/><use xlink:href="#24" y="43.42"/><use xlink:href="#25" y="45.591"/><use xlink:href="#26" y="47.762"/><use xlink:href="#27" y="49.933"/><use xlink:href="#28" y="52.104"/><use xlink:href="#29" y="54.275"/><use xlink:href="#22" y="56.446"/><use xlink:href="#16" y="58.617"/><use xlink:href="#30" y="60.788"/><use xlink:href="#24" y="62.959"/><use xlink:href="#31" y="65.13"/><use xlink:href="#32" y="67.301"/><use xlink:href="#33" y="69.472"/><use xlink:href="#34" y="71.643"/><use xlink:href="#16" y="73.814"/><use xlink:href="#24" y="75.985"/><use xlink:href="#35" y="78.156"/><use xlink:href="#33" y="80.327"/><use xlink:href="#36" y="82.498"/><use xlink:href="#37" y="84.669"/><use xlink:href="#21" y="86.84"/><use xlink:href="#16" y="89.011"/><use xlink:href="#38" y="91.182"/><use xlink:href="#24" y="93.353"/><use xlink:href="#39" y="95.524"/></svg><svg x="6232"><use xlink:href="#a"/><use xlink:href="#b" x="-.004" y="97.67"/><use xlink:href="#5"/><use xlink:href="#6" y="2.171"/><use xlink:href="#7" y="4.342"/><use xlink:href="#8" y="6.513"/><use xlink:href="#9" y="8.684"/><use xlink:href="#10" y="10.855"/><use xlink:href="#11" y="13.026"/><use xlink:href="#12" y="15.197"/><use xlink:href="#13" y="17.368"/><use xlink:href="#14" y="19.539"/><use xlink:href="#15" y="21.71"/><use xlink:href="#16" y="23.881"/><use xlink:href="#17" y="26.052"/><use xlink:href="#18" y="28.223"/><use xlink:href="#19" y="30.394"/><use xlink:href="#20" y="32.565"/><use xlink:href="#21" y="34.736"/><use xlink:href="#22" y="36.907"/><use xlink:href="#23" y="39.078"/><use xlink:href="#16" y="41.249"/><use xlink:href="#24" y="43.42"/><use xlink:href="#25" y="45.591"/><use xlink:href="#26" y="47.762"/><use xlink:href="#27" y="49.933"/><use xlink:href="#28" y="52.104"/><use xlink:href="#29" y="54.275"/><use xlink:href="#22" y="56.446"/><use xlink:href="#16" y="58.617"/><use xlink:href="#30" y="60.788"/><use xlink:href="#24" y="62.959"/><use xlink:href="#31" y="65.13"/><use xlink:href="#32" y="67.301"/><use xlink:href="#33" y="69.472"/><use xlink:href="#34" y="71.643"/><use xlink:href="#16" y="73.814"/><use xlink:href="#24" y="75.985"/><use xlink:href="#35" y="78.156"/><use xlink:href="#33" y="80.327"/><use xlink:href="#36" y="82.498"/><use xlink:href="#37" y="84.669"/><use xlink:href="#21" y="86.84"/><use xlink:href="#16" y="89.011"/><use xlink:href="#38" y="91.182"/><use xlink:href="#24" y="93.353"/><use xlink:href="#39" y="95.524"/></svg><svg x="6396"><use xlink:href="#a"/><use xlink:href="#b" x="-.004" y="97.67"/><use xlink:href="#5"/><use xlink:href="#6" y="2.171"/><use xlink:href="#7" y="4.342"/><use xlink:href="#8" y="6.513"/><use xlink:href="#9" y="8.684"/><use xlink:href="#10" y="10.855"/><use xlink:href="#11" y="13.026"/><use xlink:href="#12" y="15.197"/><use xlink:href="#13" y="17.368"/><use xlink:href="#14" y="19.539"/><use xlink:href="#15" y="21.71"/><use xlink:href="#16" y="23.881"/><use xlink:href="#17" y="26.052"/><use xlink:href="#18" y="28.223"/><use xlink:href="#19" y="30.394"/><use xlink:href="#20" y="32.565"/><use xlink:href="#21" y="34.736"/><use xlink:href="#22" y="36.907"/><use xlink:href="#23" y="39.078"/><use xlink:href="#16" y="41.249"/><use xlink:href="#24" y="43.42"/><use xlink:href="#25" y="45.591"/><use xlink:href="#26" y="47.762"/><use xlink:href="#27" y="49.933"/><use xlink:href="#28" y="52.104"/><use xlink:href="#29" y="54.275"/><use xlink:href="#22" y="56.446"/><use xlink:href="#16" y="58.617"/><use xlink:href="#30" y="60.788"/><use xlink:href="#24" y="62.959"/><use xlink:href="#31" y="65.13"/><use xlink:href="#32" y="67.301"/><use xlink:href="#33" y="69.472"/><use xlink:href="#34" y="71.643"/><use xlink:href="#16" y="73.814"/><use xlink:href="#24" y="75.985"/><use xlink:href="#35" y="78.156"/><use xlink:href="#33" y="80.327"/><use xlink:href="#36" y="82.498"/><use xlink:href="#37" y="84.669"/><use xlink:href="#21" y="86.84"/><use xlink:href="#16" y="89.011"/><use xlink:href="#38" y="91.182"/><use xlink:href="#24" y="93.353"/><use xlink:href="#39" y="95.524"/></svg><svg x="6560"><use xlink:href="#a"/><use xlink:href="#b" x="35.996" y="97.67"/><use xlink:href="#5"/><use xlink:href="#6" y="2.171"/><use xlink:href="#7" y="4.342"/><use xlink:href="#8" y="6.513"/><use xlink:href="#9" y="8.684"/><use xlink:href="#10" y="10.855"/><use xlink:href="#11" y="13.026"/><use xlink:href="#12" y="15.197"/><use xlink:href="#13" y="17.368"/><use xlink:href="#14" y="19.539"/><use xlink:href="#15" y="21.71"/><use xlink:href="#16" y="23.881"/><use xlink:href="#17" y="26.052"/><use xlink:href="#18" y="28.223"/><use xlink:href="#19" y="30.394"/><use xlink:href="#20" y="32.565"/><use xlink:href="#21" y="34.736"/><use xlink:href="#22" y="36.907"/><use xlink:href="#23" y="39.078"/><use xlink:href="#16" y="41.249"/><use xlink:href="#24" y="43.42"/><use xlink:href="#25" y="45.591"/><use xlink:href="#26" y="47.762"/><use xlink:href="#27" y="49.933"/><use xlink:href="#28" y="52.104"/><use xlink:href="#29" y="54.275"/><use xlink:href="#22" y="56.446"/><use xlink:href="#16" y="58.617"/><use xlink:href="#30" y="60.788"/><use xlink:href="#24" y="62.959"/><use xlink:href="#31" y="65.13"/><use xlink:href="#32" y="67.301"/><use xlink:href="#33" y="69.472"/><use xlink:href="#34" y="71.643"/><use xlink:href="#16" y="73.814"/><use xlink:href="#24" y="75.985"/><use xlink:href="#35" y="78.156"/><use xlink:href="#33" y="80.327"/><use xlink:href="#36" y="82.498"/><use xlink:href="#37" y="84.669"/><use xlink:href="#21" y="86.84"/><use xlink:href="#16" y="89.011"/><use xlink:href="#38" y="91.182"/><use xlink:href="#24" y="93.353"/><use xlink:href="#39" y="95.524"/><use xlink:href="#1" y="97.695"/></svg><svg x="6724"><use xlink:href="#a"/><use xlink:href="#b" x="-.004" y="97.67"/><use xlink:href="#7"/><use xlink:href="#8" y="2.171"/><use xlink:href="#9" y="4.342"/><use xlink:href="#10" y="6.513"/><use xlink:href="#11" y="8.684"/><use xlink:href="#12" y="10.855"/><use xlink:href="#13" y="13.026"/><use xlink:href="#14" y="15.197"/><use xlink:href="#15" y="17.368"/><use xlink:href="#16" y="19.539"/><use xlink:href="#17" y="21.71"/><use xlink:href="#18" y="23.881"/><use xlink:href="#19" y="26.052"/><use xlink:href="#20" y="28.223"/><use xlink:href="#21" y="30.394"/><use xlink:href="#22" y="32.565"/><use xlink:href="#23" y="34.736"/><use xlink:href="#16" y="36.907"/><use xlink:href="#24" y="39.078"/><use xlink:href="#25" y="41.249"/><use xlink:href="#26" y="43.42"/><use xlink:href="#27" y="45.591"/><use xlink:href="#28" y="47.762"/><use xlink:href="#29" y="49.933"/><use xlink:href="#22" y="52.104"/><use xlink:href="#16" y="54.275"/><use xlink:href="#30" y="56.446"/><use xlink:href="#24" y="58.617"/><use xlink:href="#31" y="60.788"/><use xlink:href="#32" y="62.959"/><use xlink:href="#33" y="65.13"/><use xlink:href="#34" y="67.301"/><use xlink:href="#16" y="69.472"/><use xlink:href="#24" y="71.643"/><use xlink:href="#35" y="73.814"/><use xlink:href="#33" y="75.985"/><use xlink:href="#36" y="78.156"/><use xlink:href="#37" y="80.327"/><use xlink:href="#21" y="82.498"/><use xlink:href="#16" y="84.669"/><use xlink:href="#38" y="86.84"/><use xlink:href="#24" y="89.011"/><use xlink:href="#39" y="91.182"/><use xlink:href="#1" y="93.353"/><text y="97.194" class="f">exit</text></svg></svg></g></g></svg></svg>