<svg xmlns="http://www.w3.org/2000/svg" xmlns:xlink="http://www.w3.org/1999/xlink" width="1500" height="906.69"><rect width="1500" height="906.69" rx="5" ry="5" class="a"/><svg y="0%" x="0%"><circle cx="20" cy="20" r="6" fill="#ff5f58"/><circle cx="40" cy="20" r="6" fill="#ffbd2e"/><circle cx="60" cy="20" r="6" fill="#18c132"/></svg><svg height="846.69" viewBox="0 0 146 84.669" width="1460" x="15" xmlns="http://www.w3.org/2000/svg" xmlns:xlink="http://www.w3.org/1999/xlink" y="50"><style>@keyframes k{0%{transform:translateX(0)}1.5%{transform:translateX(-146px)}2.5%{transform:translateX(-292px)}3.6%{transform:translateX(-438px)}4.9%{transform:translateX(-584px)}5.9%{transform:translateX(-730px)}6.9%{transform:translateX(-876px)}11.7%{transform:translateX(-1022px)}14.7%{transform:translateX(-1168px)}15.1%{transform:translateX(-1314px)}18.4%{transform:translateX(-1460px)}19.3%{transform:translateX(-1606px)}20.9%{transform:translateX(-1752px)}21.6%{transform:translateX(-1898px)}22.4%{transform:translateX(-2044px)}23.6%{transform:translateX(-2190px)}29.5%{transform:translateX(-2336px)}30.1%{transform:translateX(-2482px)}31.6%{transform:translateX(-2628px)}32.2%{transform:translateX(-2774px)}38%{transform:translateX(-2920px)}38.9%{transform:translateX(-3066px)}43.3%{transform:translateX(-3212px)}44.9%{transform:translateX(-3358px)}45.7%{transform:translateX(-3504px)}46.4%{transform:translateX(-3650px)}48.3%{transform:translateX(-3796px)}50.2%{transform:translateX(-3942px)}50.9%{transform:translateX(-4088px)}52.4%{transform:translateX(-4234px)}52.9%{transform:translateX(-4380px)}56.2%{transform:translateX(-4526px)}57.3%{transform:translateX(-4672px)}59.8%{transform:translateX(-4818px)}64.8%{transform:translateX(-4964px)}65.8%{transform:translateX(-5110px)}66.7%{transform:translateX(-5256px)}85.2%{transform:translateX(-5548px)}85.6%{transform:translateX(-5840px)}85.7%{transform:translateX(-6278px)}to{transform:translateX(-6424px)}}.a{fill:#282d35}.f,.g,.h,.i{fill:#fff;white-space:pre}.g,.h,.i{fill:#a8cc8c;font-weight:700}.h,.i{fill:#dbab79}.i{fill:#e88388}</style><g font-family="Monaco,Consolas,Menlo,'Bitstream Vera Sans Mono','Powerline Symbols',monospace" font-size="1.67"><defs><symbol id="1"><text y="1.67" class="f">[</text><text x="1.002" y="1.67" class="g">sadlaboka</text><text x="10.02" y="1.67" class="h">@</text><text x="11.022" y="1.67" class="f">HOME-PC</text><text x="19.038" y="1.67" class="f">fixtures]</text><text x="28.056" y="1.67" class="i">(main)</text><text x="34.068" y="1.67" class="f">$</text><text x="36.072" y="1.67" class="f">gendiff</text></symbol><symbol id="2"><text y="1.67" class="f">[</text><text x="1.002" y="1.67" class="g">sadlaboka</text><text x="10.02" y="1.67" class="h">@</text><text x="11.022" y="1.67" class="f">HOME-PC</text><text x="19.038" y="1.67" class="f">fixtures]</text><text x="28.056" y="1.67" class="i">(main)</text><text x="34.068" y="1.67" class="f">$</text><text x="36.072" y="1.67" class="f">gendiff</text><text x="44.088" y="1.67" class="f">-f</text></symbol><symbol id="3"><text y="1.67" class="f">[</text><text x="1.002" y="1.67" class="g">sadlaboka</text><text x="10.02" y="1.67" class="h">@</text><text x="11.022" y="1.67" class="f">HOME-PC</text><text x="19.038" y="1.67" class="f">fixtures]</text><text x="28.056" y="1.67" class="i">(main)</text><text x="34.068" y="1.67" class="f">$</text><text x="36.072" y="1.67" class="f">gendiff</text><text x="44.088" y="1.67" class="f">-f</text><text x="47.094" y="1.67" class="f">json</text></symbol><symbol id="4"><text y="1.67" class="f">[</text><text x="1.002" y="1.67" class="g">sadlaboka</text><text x="10.02" y="1.67" class="h">@</text><text x="11.022" y="1.67" class="f">HOME-PC</text><text x="19.038" y="1.67" class="f">fixtures]</text><text x="28.056" y="1.67" class="i">(main)</text><text x="34.068" y="1.67" class="f">$</text><text x="36.072" y="1.67" class="f">gendiff</text><text x="44.088" y="1.67" class="f">-f</text><text x="47.094" y="1.67" class="f">json</text><text x="52.104" y="1.67" class="f">file3.json</text></symbol><symbol id="5"><text y="1.67" class="f">[</text><text x="1.002" y="1.67" class="g">sadlaboka</text><text x="10.02" y="1.67" class="h">@</text><text x="11.022" y="1.67" class="f">HOME-PC</text><text x="19.038" y="1.67" class="f">fixtures]</text><text x="28.056" y="1.67" class="i">(main)</text><text x="34.068" y="1.67" class="f">$</text><text x="36.072" y="1.67" class="f">gendiff</text><text x="44.088" y="1.67" class="f">-f</text><text x="47.094" y="1.67" class="f">json</text><text x="52.104" y="1.67" class="f">file3.json</text><text x="63.126" y="1.67" class="f">file4.json</text></symbol><symbol id="6"><text y="1.67" class="f">{&quot;common&quot;:</text><text x="11.022" y="1.67" class="f">{&quot;status&quot;:</text><text x="22.044" y="1.67" class="f">&quot;NESTED&quot;,</text><text x="32.064" y="1.67" class="f">&quot;value&quot;:</text><text x="41.082" y="1.67" class="f">{&quot;follow&quot;:</text><text x="52.104" y="1.67" class="f">{&quot;status&quot;:</text><text x="63.126" y="1.67" class="f">&quot;ADDED&quot;,</text><text x="72.144" y="1.67" class="f">&quot;value&quot;:</text><text x="81.162" y="1.67" class="f">&quot;false&quot;},</text><text x="91.182" y="1.67" class="f">&quot;setting1&quot;:</text><text x="103.206" y="1.67" class="f">{&quot;status&quot;:</text><text x="114.228" y="1.67" class="f">&quot;UNCHANGED&quot;,</text><text x="127.254" y="1.67" class="f">&quot;value&quot;:</text><text x="136.272" y="1.67" class="f">&quot;Value</text><text x="143.286" y="1.67" class="f">1&quot;}</text></symbol><symbol id="7"><text y="1.67" class="f">,</text><text x="2.004" y="1.67" class="f">&quot;setting2&quot;:</text><text x="14.028" y="1.67" class="f">{&quot;status&quot;:</text><text x="25.05" y="1.67" class="f">&quot;REMOVED&quot;,</text><text x="36.072" y="1.67" class="f">&quot;value&quot;:</text><text x="45.09" y="1.67" class="f">200},</text><text x="51.102" y="1.67" class="f">&quot;setting3&quot;:</text><text x="63.126" y="1.67" class="f">{&quot;status&quot;:</text><text x="74.148" y="1.67" class="f">&quot;CHANGED&quot;,</text><text x="85.17" y="1.67" class="f">&quot;first_value&quot;:</text><text x="100.2" y="1.67" class="f">&quot;true&quot;,</text><text x="108.216" y="1.67" class="f">&quot;second_value&quot;:</text><text x="124.248" y="1.67" class="f">&quot;null&quot;},</text><text x="133.266" y="1.67" class="f">&quot;setting4&quot;:</text><text x="145.29" y="1.67" class="f">{</text></symbol><symbol id="8"><text y="1.67" class="f">&quot;status&quot;:</text><text x="10.02" y="1.67" class="f">&quot;ADDED&quot;,</text><text x="19.038" y="1.67" class="f">&quot;value&quot;:</text><text x="28.056" y="1.67" class="f">&quot;blah</text><text x="34.068" y="1.67" class="f">blah&quot;},</text><text x="42.084" y="1.67" class="f">&quot;setting5&quot;:</text><text x="54.108" y="1.67" class="f">{&quot;status&quot;:</text><text x="65.13" y="1.67" class="f">&quot;ADDED&quot;,</text><text x="74.148" y="1.67" class="f">&quot;value&quot;:</text><text x="83.166" y="1.67" class="f">{&quot;key5&quot;:</text><text x="92.184" y="1.67" class="f">&quot;value5&quot;}},</text><text x="104.208" y="1.67" class="f">&quot;setting6&quot;:</text><text x="116.232" y="1.67" class="f">{&quot;status&quot;:</text><text x="127.254" y="1.67" class="f">&quot;NESTED&quot;,</text><text x="137.274" y="1.67" class="f">&quot;value&quot;:</text></symbol><symbol id="9"><text y="1.67" class="f">{&quot;doge&quot;:</text><text x="9.018" y="1.67" class="f">{&quot;status&quot;:</text><text x="20.04" y="1.67" class="f">&quot;NESTED&quot;,</text><text x="30.06" y="1.67" class="f">&quot;value&quot;:</text><text x="39.078" y="1.67" class="f">{&quot;wow&quot;:</text><text x="47.094" y="1.67" class="f">{&quot;status&quot;:</text><text x="58.116" y="1.67" class="f">&quot;CHANGED&quot;,</text><text x="69.138" y="1.67" class="f">&quot;first_value&quot;:</text><text x="84.168" y="1.67" class="f">&quot;&quot;,</text><text x="88.176" y="1.67" class="f">&quot;second_value&quot;:</text><text x="104.208" y="1.67" class="f">&quot;so</text><text x="108.216" y="1.67" class="f">much&quot;}}},</text><text x="118.236" y="1.67" class="f">&quot;key&quot;:</text><text x="125.25" y="1.67" class="f">{&quot;status&quot;:</text><text x="136.272" y="1.67" class="f">&quot;UNCHANGED</text></symbol><symbol id="10"><text y="1.67" class="f">&quot;,</text><text x="3.006" y="1.67" class="f">&quot;value&quot;:</text><text x="12.024" y="1.67" class="f">&quot;value&quot;},</text><text x="22.044" y="1.67" class="f">&quot;ops&quot;:</text><text x="29.058" y="1.67" class="f">{&quot;status&quot;:</text><text x="40.08" y="1.67" class="f">&quot;ADDED&quot;,</text><text x="49.098" y="1.67" class="f">&quot;value&quot;:</text><text x="58.116" y="1.67" class="f">&quot;vops&quot;}}}}},</text><text x="71.142" y="1.67" class="f">&quot;group1&quot;:</text><text x="81.162" y="1.67" class="f">{&quot;status&quot;:</text><text x="92.184" y="1.67" class="f">&quot;NESTED&quot;,</text><text x="102.204" y="1.67" class="f">&quot;value&quot;:</text><text x="111.222" y="1.67" class="f">{&quot;baz&quot;:</text><text x="119.238" y="1.67" class="f">{&quot;status&quot;:</text><text x="130.26" y="1.67" class="f">&quot;CHANGED&quot;,</text><text x="141.282" y="1.67" class="f">&quot;firs</text></symbol><symbol id="11"><text y="1.67" class="f">t_value&quot;:</text><text x="10.02" y="1.67" class="f">&quot;bas&quot;,</text><text x="17.034" y="1.67" class="f">&quot;second_value&quot;:</text><text x="33.066" y="1.67" class="f">&quot;bars&quot;},</text><text x="42.084" y="1.67" class="f">&quot;foo&quot;:</text><text x="49.098" y="1.67" class="f">{&quot;status&quot;:</text><text x="60.12" y="1.67" class="f">&quot;UNCHANGED&quot;,</text><text x="73.146" y="1.67" class="f">&quot;value&quot;:</text><text x="82.164" y="1.67" class="f">&quot;bar&quot;},</text><text x="90.18" y="1.67" class="f">&quot;nest&quot;:</text><text x="98.196" y="1.67" class="f">{&quot;status&quot;:</text><text x="109.218" y="1.67" class="f">&quot;CHANGED&quot;,</text><text x="120.24" y="1.67" class="f">&quot;first_value&quot;:</text><text x="135.27" y="1.67" class="f">{&quot;key&quot;:</text><text x="143.286" y="1.67" class="f">&quot;va</text></symbol><symbol id="12"><text y="1.67" class="f">lue&quot;},</text><text x="7.014" y="1.67" class="f">&quot;second_value&quot;:</text><text x="23.046" y="1.67" class="f">&quot;str&quot;}}},</text><text x="33.066" y="1.67" class="f">&quot;group2&quot;:</text><text x="43.086" y="1.67" class="f">{&quot;status&quot;:</text><text x="54.108" y="1.67" class="f">&quot;REMOVED&quot;,</text><text x="65.13" y="1.67" class="f">&quot;value&quot;:</text><text x="74.148" y="1.67" class="f">{&quot;abc&quot;:</text><text x="82.164" y="1.67" class="f">12345,</text><text x="89.178" y="1.67" class="f">&quot;deep&quot;:</text><text x="97.194" y="1.67" class="f">{&quot;id&quot;:</text><text x="104.208" y="1.67" class="f">45}}},</text><text x="111.222" y="1.67" class="f">&quot;group3&quot;:</text><text x="121.242" y="1.67" class="f">{&quot;status&quot;:</text><text x="132.264" y="1.67" class="f">&quot;ADDED&quot;,</text><text x="141.282" y="1.67" class="f">&quot;valu</text></symbol><symbol id="13"><text y="1.67" class="f">e&quot;:</text><text x="4.008" y="1.67" class="f">{&quot;deep&quot;:</text><text x="13.026" y="1.67" class="f">{&quot;id&quot;:</text><text x="20.04" y="1.67" class="f">{&quot;number&quot;:</text><text x="31.062" y="1.67" class="f">45}},</text><text x="37.074" y="1.67" class="f">&quot;fee&quot;:</text><text x="44.088" y="1.67" class="f">100500}}}</text></symbol><symbol id="14"><text y="1.67" class="f">[</text><text x="1.002" y="1.67" class="g">sadlaboka</text><text x="10.02" y="1.67" class="h">@</text><text x="11.022" y="1.67" class="f">HOME-PC</text><text x="19.038" y="1.67" class="f">fixtures]</text><text x="28.056" y="1.67" class="i">(main)</text><text x="34.068" y="1.67" class="f">$</text></symbol><symbol id="a"><path fill="transparent" d="M0 0h146v39H0z"/></symbol></defs><path class="a" d="M0 0h146v84.669H0z"/><g style="animation-duration:12.407008000000001s;animation-iteration-count:infinite;animation-name:k;animation-timing-function:steps(1,end)"><svg width="6570"><svg><use xlink:href="#a"/><text y="1.67" class="f">[</text><text x="1.002" y="1.67" class="g">sadlaboka</text><text x="10.02" y="1.67" class="h">@</text><text x="11.022" y="1.67" class="f">HOME-PC</text><text x="19.038" y="1.67" class="f">fixtures]</text><text x="28.056" y="1.67" class="i">(main)</text><text x="34.068" y="1.67" class="f">$</text><text x="36.072" y="1.67" class="f">g</text></svg><svg x="146"><use xlink:href="#a"/><text y="1.67" class="f">[</text><text x="1.002" y="1.67" class="g">sadlaboka</text><text x="10.02" y="1.67" class="h">@</text><text x="11.022" y="1.67" class="f">HOME-PC</text><text x="19.038" y="1.67" class="f">fixtures]</text><text x="28.056" y="1.67" class="i">(main)</text><text x="34.068" y="1.67" class="f">$</text><text x="36.072" y="1.67" class="f">ge</text></svg><svg x="292"><use xlink:href="#a"/><text y="1.67" class="f">[</text><text x="1.002" y="1.67" class="g">sadlaboka</text><text x="10.02" y="1.67" class="h">@</text><text x="11.022" y="1.67" class="f">HOME-PC</text><text x="19.038" y="1.67" class="f">fixtures]</text><text x="28.056" y="1.67" class="i">(main)</text><text x="34.068" y="1.67" class="f">$</text><text x="36.072" y="1.67" class="f">gen</text></svg><svg x="438"><use xlink:href="#a"/><text y="1.67" class="f">[</text><text x="1.002" y="1.67" class="g">sadlaboka</text><text x="10.02" y="1.67" class="h">@</text><text x="11.022" y="1.67" class="f">HOME-PC</text><text x="19.038" y="1.67" class="f">fixtures]</text><text x="28.056" y="1.67" class="i">(main)</text><text x="34.068" y="1.67" class="f">$</text><text x="36.072" y="1.67" class="f">gend</text></svg><svg x="584"><use xlink:href="#a"/><text y="1.67" class="f">[</text><text x="1.002" y="1.67" class="g">sadlaboka</text><text x="10.02" y="1.67" class="h">@</text><text x="11.022" y="1.67" class="f">HOME-PC</text><text x="19.038" y="1.67" class="f">fixtures]</text><text x="28.056" y="1.67" class="i">(main)</text><text x="34.068" y="1.67" class="f">$</text><text x="36.072" y="1.67" class="f">gendi</text></svg><svg x="730"><use xlink:href="#a"/><text y="1.67" class="f">[</text><text x="1.002" y="1.67" class="g">sadlaboka</text><text x="10.02" y="1.67" class="h">@</text><text x="11.022" y="1.67" class="f">HOME-PC</text><text x="19.038" y="1.67" class="f">fixtures]</text><text x="28.056" y="1.67" class="i">(main)</text><text x="34.068" y="1.67" class="f">$</text><text x="36.072" y="1.67" class="f">gendif</text></svg><svg x="876"><use xlink:href="#a"/><use xlink:href="#1"/></svg><svg x="1022"><use xlink:href="#a"/><use xlink:href="#1"/></svg><svg x="1168"><use xlink:href="#a"/><text y="1.67" class="f">[</text><text x="1.002" y="1.67" class="g">sadlaboka</text><text x="10.02" y="1.67" class="h">@</text><text x="11.022" y="1.67" class="f">HOME-PC</text><text x="19.038" y="1.67" class="f">fixtures]</text><text x="28.056" y="1.67" class="i">(main)</text><text x="34.068" y="1.67" class="f">$</text><text x="36.072" y="1.67" class="f">gendiff</text><text x="44.088" y="1.67" class="f">-</text></svg><svg x="1314"><use xlink:href="#a"/><use xlink:href="#2"/></svg><svg x="1460"><use xlink:href="#a"/><use xlink:href="#2"/></svg><svg x="1606"><use xlink:href="#a"/><text y="1.67" class="f">[</text><text x="1.002" y="1.67" class="g">sadlaboka</text><text x="10.02" y="1.67" class="h">@</text><text x="11.022" y="1.67" class="f">HOME-PC</text><text x="19.038" y="1.67" class="f">fixtures]</text><text x="28.056" y="1.67" class="i">(main)</text><text x="34.068" y="1.67" class="f">$</text><text x="36.072" y="1.67" class="f">gendiff</text><text x="44.088" y="1.67" class="f">-f</text><text x="47.094" y="1.67" class="f">j</text></svg><svg x="1752"><use xlink:href="#a"/><text y="1.67" class="f">[</text><text x="1.002" y="1.67" class="g">sadlaboka</text><text x="10.02" y="1.67" class="h">@</text><text x="11.022" y="1.67" class="f">HOME-PC</text><text x="19.038" y="1.67" class="f">fixtures]</text><text x="28.056" y="1.67" class="i">(main)</text><text x="34.068" y="1.67" class="f">$</text><text x="36.072" y="1.67" class="f">gendiff</text><text x="44.088" y="1.67" class="f">-f</text><text x="47.094" y="1.67" class="f">js</text></svg><svg x="1898"><use xlink:href="#a"/><text y="1.67" class="f">[</text><text x="1.002" y="1.67" class="g">sadlaboka</text><text x="10.02" y="1.67" class="h">@</text><text x="11.022" y="1.67" class="f">HOME-PC</text><text x="19.038" y="1.67" class="f">fixtures]</text><text x="28.056" y="1.67" class="i">(main)</text><text x="34.068" y="1.67" class="f">$</text><text x="36.072" y="1.67" class="f">gendiff</text><text x="44.088" y="1.67" class="f">-f</text><text x="47.094" y="1.67" class="f">jso</text></svg><svg x="2044"><use xlink:href="#a"/><use xlink:href="#3"/></svg><svg x="2190"><use xlink:href="#a"/><use xlink:href="#3"/></svg><svg x="2336"><use xlink:href="#a"/><text y="1.67" class="f">[</text><text x="1.002" y="1.67" class="g">sadlaboka</text><text x="10.02" y="1.67" class="h">@</text><text x="11.022" y="1.67" class="f">HOME-PC</text><text x="19.038" y="1.67" class="f">fixtures]</text><text x="28.056" y="1.67" class="i">(main)</text><text x="34.068" y="1.67" class="f">$</text><text x="36.072" y="1.67" class="f">gendiff</text><text x="44.088" y="1.67" class="f">-f</text><text x="47.094" y="1.67" class="f">json</text><text x="52.104" y="1.67" class="f">f</text></svg><svg x="2482"><use xlink:href="#a"/><text y="1.67" class="f">[</text><text x="1.002" y="1.67" class="g">sadlaboka</text><text x="10.02" y="1.67" class="h">@</text><text x="11.022" y="1.67" class="f">HOME-PC</text><text x="19.038" y="1.67" class="f">fixtures]</text><text x="28.056" y="1.67" class="i">(main)</text><text x="34.068" y="1.67" class="f">$</text><text x="36.072" y="1.67" class="f">gendiff</text><text x="44.088" y="1.67" class="f">-f</text><text x="47.094" y="1.67" class="f">json</text><text x="52.104" y="1.67" class="f">fi</text></svg><svg x="2628"><use xlink:href="#a"/><text y="1.67" class="f">[</text><text x="1.002" y="1.67" class="g">sadlaboka</text><text x="10.02" y="1.67" class="h">@</text><text x="11.022" y="1.67" class="f">HOME-PC</text><text x="19.038" y="1.67" class="f">fixtures]</text><text x="28.056" y="1.67" class="i">(main)</text><text x="34.068" y="1.67" class="f">$</text><text x="36.072" y="1.67" class="f">gendiff</text><text x="44.088" y="1.67" class="f">-f</text><text x="47.094" y="1.67" class="f">json</text><text x="52.104" y="1.67" class="f">fil</text></svg><svg x="2774"><use xlink:href="#a"/><text y="1.67" class="f">[</text><text x="1.002" y="1.67" class="g">sadlaboka</text><text x="10.02" y="1.67" class="h">@</text><text x="11.022" y="1.67" class="f">HOME-PC</text><text x="19.038" y="1.67" class="f">fixtures]</text><text x="28.056" y="1.67" class="i">(main)</text><text x="34.068" y="1.67" class="f">$</text><text x="36.072" y="1.67" class="f">gendiff</text><text x="44.088" y="1.67" class="f">-f</text><text x="47.094" y="1.67" class="f">json</text><text x="52.104" y="1.67" class="f">file</text></svg><svg x="2920"><use xlink:href="#a"/><text y="1.67" class="f">[</text><text x="1.002" y="1.67" class="g">sadlaboka</text><text x="10.02" y="1.67" class="h">@</text><text x="11.022" y="1.67" class="f">HOME-PC</text><text x="19.038" y="1.67" class="f">fixtures]</text><text x="28.056" y="1.67" class="i">(main)</text><text x="34.068" y="1.67" class="f">$</text><text x="36.072" y="1.67" class="f">gendiff</text><text x="44.088" y="1.67" class="f">-f</text><text x="47.094" y="1.67" class="f">json</text><text x="52.104" y="1.67" class="f">file3</text></svg><svg x="3066"><use xlink:href="#a"/><text y="1.67" class="f">[</text><text x="1.002" y="1.67" class="g">sadlaboka</text><text x="10.02" y="1.67" class="h">@</text><text x="11.022" y="1.67" class="f">HOME-PC</text><text x="19.038" y="1.67" class="f">fixtures]</text><text x="28.056" y="1.67" class="i">(main)</text><text x="34.068" y="1.67" class="f">$</text><text x="36.072" y="1.67" class="f">gendiff</text><text x="44.088" y="1.67" class="f">-f</text><text x="47.094" y="1.67" class="f">json</text><text x="52.104" y="1.67" class="f">file3.</text></svg><svg x="3212"><use xlink:href="#a"/><text y="1.67" class="f">[</text><text x="1.002" y="1.67" class="g">sadlaboka</text><text x="10.02" y="1.67" class="h">@</text><text x="11.022" y="1.67" class="f">HOME-PC</text><text x="19.038" y="1.67" class="f">fixtures]</text><text x="28.056" y="1.67" class="i">(main)</text><text x="34.068" y="1.67" class="f">$</text><text x="36.072" y="1.67" class="f">gendiff</text><text x="44.088" y="1.67" class="f">-f</text><text x="47.094" y="1.67" class="f">json</text><text x="52.104" y="1.67" class="f">file3.j</text></svg><svg x="3358"><use xlink:href="#a"/><text y="1.67" class="f">[</text><text x="1.002" y="1.67" class="g">sadlaboka</text><text x="10.02" y="1.67" class="h">@</text><text x="11.022" y="1.67" class="f">HOME-PC</text><text x="19.038" y="1.67" class="f">fixtures]</text><text x="28.056" y="1.67" class="i">(main)</text><text x="34.068" y="1.67" class="f">$</text><text x="36.072" y="1.67" class="f">gendiff</text><text x="44.088" y="1.67" class="f">-f</text><text x="47.094" y="1.67" class="f">json</text><text x="52.104" y="1.67" class="f">file3.js</text></svg><svg x="3504"><use xlink:href="#a"/><text y="1.67" class="f">[</text><text x="1.002" y="1.67" class="g">sadlaboka</text><text x="10.02" y="1.67" class="h">@</text><text x="11.022" y="1.67" class="f">HOME-PC</text><text x="19.038" y="1.67" class="f">fixtures]</text><text x="28.056" y="1.67" class="i">(main)</text><text x="34.068" y="1.67" class="f">$</text><text x="36.072" y="1.67" class="f">gendiff</text><text x="44.088" y="1.67" class="f">-f</text><text x="47.094" y="1.67" class="f">json</text><text x="52.104" y="1.67" class="f">file3.jso</text></svg><svg x="3650"><use xlink:href="#a"/><use xlink:href="#4"/></svg><svg x="3796"><use xlink:href="#a"/><use xlink:href="#4"/></svg><svg x="3942"><use xlink:href="#a"/><text y="1.67" class="f">[</text><text x="1.002" y="1.67" class="g">sadlaboka</text><text x="10.02" y="1.67" class="h">@</text><text x="11.022" y="1.67" class="f">HOME-PC</text><text x="19.038" y="1.67" class="f">fixtures]</text><text x="28.056" y="1.67" class="i">(main)</text><text x="34.068" y="1.67" class="f">$</text><text x="36.072" y="1.67" class="f">gendiff</text><text x="44.088" y="1.67" class="f">-f</text><text x="47.094" y="1.67" class="f">json</text><text x="52.104" y="1.67" class="f">file3.json</text><text x="63.126" y="1.67" class="f">f</text></svg><svg x="4088"><use xlink:href="#a"/><text y="1.67" class="f">[</text><text x="1.002" y="1.67" class="g">sadlaboka</text><text x="10.02" y="1.67" class="h">@</text><text x="11.022" y="1.67" class="f">HOME-PC</text><text x="19.038" y="1.67" class="f">fixtures]</text><text x="28.056" y="1.67" class="i">(main)</text><text x="34.068" y="1.67" class="f">$</text><text x="36.072" y="1.67" class="f">gendiff</text><text x="44.088" y="1.67" class="f">-f</text><text x="47.094" y="1.67" class="f">json</text><text x="52.104" y="1.67" class="f">file3.json</text><text x="63.126" y="1.67" class="f">fi</text></svg><svg x="4234"><use xlink:href="#a"/><text y="1.67" class="f">[</text><text x="1.002" y="1.67" class="g">sadlaboka</text><text x="10.02" y="1.67" class="h">@</text><text x="11.022" y="1.67" class="f">HOME-PC</text><text x="19.038" y="1.67" class="f">fixtures]</text><text x="28.056" y="1.67" class="i">(main)</text><text x="34.068" y="1.67" class="f">$</text><text x="36.072" y="1.67" class="f">gendiff</text><text x="44.088" y="1.67" class="f">-f</text><text x="47.094" y="1.67" class="f">json</text><text x="52.104" y="1.67" class="f">file3.json</text><text x="63.126" y="1.67" class="f">fil</text></svg><svg x="4380"><use xlink:href="#a"/><text y="1.67" class="f">[</text><text x="1.002" y="1.67" class="g">sadlaboka</text><text x="10.02" y="1.67" class="h">@</text><text x="11.022" y="1.67" class="f">HOME-PC</text><text x="19.038" y="1.67" class="f">fixtures]</text><text x="28.056" y="1.67" class="i">(main)</text><text x="34.068" y="1.67" class="f">$</text><text x="36.072" y="1.67" class="f">gendiff</text><text x="44.088" y="1.67" class="f">-f</text><text x="47.094" y="1.67" class="f">json</text><text x="52.104" y="1.67" class="f">file3.json</text><text x="63.126" y="1.67" class="f">file</text></svg><svg x="4526"><use xlink:href="#a"/><text y="1.67" class="f">[</text><text x="1.002" y="1.67" class="g">sadlaboka</text><text x="10.02" y="1.67" class="h">@</text><text x="11.022" y="1.67" class="f">HOME-PC</text><text x="19.038" y="1.67" class="f">fixtures]</text><text x="28.056" y="1.67" class="i">(main)</text><text x="34.068" y="1.67" class="f">$</text><text x="36.072" y="1.67" class="f">gendiff</text><text x="44.088" y="1.67" class="f">-f</text><text x="47.094" y="1.67" class="f">json</text><text x="52.104" y="1.67" class="f">file3.json</text><text x="63.126" y="1.67" class="f">file4</text></svg><svg x="4672"><use xlink:href="#a"/><text y="1.67" class="f">[</text><text x="1.002" y="1.67" class="g">sadlaboka</text><text x="10.02" y="1.67" class="h">@</text><text x="11.022" y="1.67" class="f">HOME-PC</text><text x="19.038" y="1.67" class="f">fixtures]</text><text x="28.056" y="1.67" class="i">(main)</text><text x="34.068" y="1.67" class="f">$</text><text x="36.072" y="1.67" class="f">gendiff</text><text x="44.088" y="1.67" class="f">-f</text><text x="47.094" y="1.67" class="f">json</text><text x="52.104" y="1.67" class="f">file3.json</text><text x="63.126" y="1.67" class="f">file4.</text></svg><svg x="4818"><use xlink:href="#a"/><text y="1.67" class="f">[</text><text x="1.002" y="1.67" class="g">sadlaboka</text><text x="10.02" y="1.67" class="h">@</text><text x="11.022" y="1.67" class="f">HOME-PC</text><text x="19.038" y="1.67" class="f">fixtures]</text><text x="28.056" y="1.67" class="i">(main)</text><text x="34.068" y="1.67" class="f">$</text><text x="36.072" y="1.67" class="f">gendiff</text><text x="44.088" y="1.67" class="f">-f</text><text x="47.094" y="1.67" class="f">json</text><text x="52.104" y="1.67" class="f">file3.json</text><text x="63.126" y="1.67" class="f">file4.j</text></svg><svg x="4964"><use xlink:href="#a"/><text y="1.67" class="f">[</text><text x="1.002" y="1.67" class="g">sadlaboka</text><text x="10.02" y="1.67" class="h">@</text><text x="11.022" y="1.67" class="f">HOME-PC</text><text x="19.038" y="1.67" class="f">fixtures]</text><text x="28.056" y="1.67" class="i">(main)</text><text x="34.068" y="1.67" class="f">$</text><text x="36.072" y="1.67" class="f">gendiff</text><text x="44.088" y="1.67" class="f">-f</text><text x="47.094" y="1.67" class="f">json</text><text x="52.104" y="1.67" class="f">file3.json</text><text x="63.126" y="1.67" class="f">file4.js</text></svg><svg x="5110"><use xlink:href="#a"/><text y="1.67" class="f">[</text><text x="1.002" y="1.67" class="g">sadlaboka</text><text x="10.02" y="1.67" class="h">@</text><text x="11.022" y="1.67" class="f">HOME-PC</text><text x="19.038" y="1.67" class="f">fixtures]</text><text x="28.056" y="1.67" class="i">(main)</text><text x="34.068" y="1.67" class="f">$</text><text x="36.072" y="1.67" class="f">gendiff</text><text x="44.088" y="1.67" class="f">-f</text><text x="47.094" y="1.67" class="f">json</text><text x="52.104" y="1.67" class="f">file3.json</text><text x="63.126" y="1.67" class="f">file4.jso</text></svg><svg x="5256"><use xlink:href="#a"/><use xlink:href="#5"/></svg><svg x="5402"><use xlink:href="#a"/><use xlink:href="#5"/></svg><svg x="5548"><use xlink:href="#a"/><use xlink:href="#5"/></svg><svg x="5694"><use xlink:href="#a"/><use xlink:href="#5"/><use xlink:href="#6" y="2.171"/><use xlink:href="#7" y="4.342"/><use xlink:href="#8" y="6.513"/><use xlink:href="#9" y="8.684"/><use xlink:href="#10" y="10.855"/><use xlink:href="#11" y="13.026"/><use xlink:href="#12" y="15.197"/><text y="19.038" class="f">e&quot;</text></svg><svg x="5840"><use xlink:href="#a"/><use xlink:href="#5"/><use xlink:href="#6" y="2.171"/><use xlink:href="#7" y="4.342"/><use xlink:href="#8" y="6.513"/><use xlink:href="#9" y="8.684"/><use xlink:href="#10" y="10.855"/><use xlink:href="#11" y="13.026"/><use xlink:href="#12" y="15.197"/><use xlink:href="#13" y="17.368"/></svg><svg x="5986"><use xlink:href="#a"/><use xlink:href="#5"/><use xlink:href="#6" y="2.171"/><use xlink:href="#7" y="4.342"/><use xlink:href="#8" y="6.513"/><use xlink:href="#9" y="8.684"/><use xlink:href="#10" y="10.855"/><use xlink:href="#11" y="13.026"/><use xlink:href="#12" y="15.197"/><use xlink:href="#13" y="17.368"/></svg><svg x="6132"><use xlink:href="#a"/><use xlink:href="#5"/><use xlink:href="#6" y="2.171"/><use xlink:href="#7" y="4.342"/><use xlink:href="#8" y="6.513"/><use xlink:href="#9" y="8.684"/><use xlink:href="#10" y="10.855"/><use xlink:href="#11" y="13.026"/><use xlink:href="#12" y="15.197"/><use xlink:href="#13" y="17.368"/></svg><svg x="6278"><use xlink:href="#a"/><use xlink:href="#5"/><use xlink:href="#6" y="2.171"/><use xlink:href="#7" y="4.342"/><use xlink:href="#8" y="6.513"/><use xlink:href="#9" y="8.684"/><use xlink:href="#10" y="10.855"/><use xlink:href="#11" y="13.026"/><use xlink:href="#12" y="15.197"/><use xlink:href="#13" y="17.368"/><use xlink:href="#14" y="19.539"/></svg><svg x="6424"><use xlink:href="#a"/><use xlink:href="#5"/><use xlink:href="#6" y="2.171"/><use xlink:href="#7" y="4.342"/><use xlink:href="#8" y="6.513"/><use xlink:href="#9" y="8.684"/><use xlink:href="#10" y="10.855"/><use xlink:href="#11" y="13.026"/><use xlink:href="#12" y="15.197"/><use xlink:href="#13" y="17.368"/><use xlink:href="#14" y="19.539"/><text y="23.38" class="f">exit</text></svg></svg></g></g></svg></svg>