<svg xmlns="http://www.w3.org/2000/svg" xmlns:xlink="http://www.w3.org/1999/xlink" width="1460" height="846.69"><rect width="1460" height="846.69" rx="0" ry="0" class="a"/><svg height="846.69" viewBox="0 0 146 84.669" width="1460" xmlns="http://www.w3.org/2000/svg" xmlns:xlink="http://www.w3.org/1999/xlink"><style>@keyframes h{0%{transform:translateX(0)}.96%{transform:translateX(-146px)}.97%{transform:translateX(-292px)}.99%{transform:translateX(-438px)}38.14%{transform:translateX(-584px)}39.06%{transform:translateX(-730px)}39.69%{transform:translateX(-876px)}40.35%{transform:translateX(-1022px)}41.15%{transform:translateX(-1168px)}41.79%{transform:translateX(-1314px)}42.42%{transform:translateX(-1460px)}45.37%{transform:translateX(-1606px)}47.23%{transform:translateX(-1752px)}47.47%{transform:translateX(-1898px)}49.51%{transform:translateX(-2044px)}50.06%{transform:translateX(-2190px)}51.07%{transform:translateX(-2336px)}51.49%{transform:translateX(-2482px)}51.97%{transform:translateX(-2628px)}52.73%{transform:translateX(-2774px)}56.37%{transform:translateX(-2920px)}56.73%{transform:translateX(-3066px)}57.67%{transform:translateX(-3212px)}58.07%{transform:translateX(-3358px)}61.62%{transform:translateX(-3504px)}62.18%{transform:translateX(-3650px)}64.92%{transform:translateX(-3796px)}65.89%{transform:translateX(-3942px)}66.44%{transform:translateX(-4088px)}66.82%{transform:translateX(-4234px)}68.04%{transform:translateX(-4380px)}69.21%{transform:translateX(-4526px)}69.65%{transform:translateX(-4672px)}70.53%{transform:translateX(-4818px)}70.88%{transform:translateX(-4964px)}72.91%{transform:translateX(-5110px)}73.61%{transform:translateX(-5256px)}75.11%{transform:translateX(-5402px)}78.2%{transform:translateX(-5548px)}78.86%{transform:translateX(-5694px)}79.39%{transform:translateX(-5840px)}90.86%{transform:translateX(-6132px)}91.11%{transform:translateX(-6278px)}91.12%{transform:translateX(-6424px)}91.16%{transform:translateX(-6716px)}91.18%{transform:translateX(-6862px)}to{transform:translateX(-7008px)}}.a{fill:#282d35}.c,.d,.e,.f{fill:#fff;white-space:pre}.d,.e,.f{fill:#a8cc8c;font-weight:700}.e,.f{fill:#dbab79}.f{fill:#e88388}</style><g font-family="Monaco,Consolas,Menlo,'Bitstream Vera Sans Mono','Powerline Symbols',monospace" font-size="1.67"><defs><symbol id="1"><text y="1.67" class="c">[</text><text x="1.002" y="1.67" class="d">sadlaboka</text><text x="10.02" y="1.67" class="e">@</text><text x="11.022" y="1.67" class="c">HOME-PC</text><text x="19.038" y="1.67" class="c">fixtures]</text><text x="28.056" y="1.67" class="f">(main)</text><text x="34.068" y="1.67" class="c">$</text></symbol><symbol id="2"><text y="1.67" class="c">[</text><text x="1.002" y="1.67" class="d">sadlaboka</text><text x="10.02" y="1.67" class="e">@</text><text x="11.022" y="1.67" class="c">HOME-PC</text><text x="19.038" y="1.67" class="c">fixtures]</text><text x="28.056" y="1.67" class="f">(main)</text><text x="34.068" y="1.67" class="c">$</text><text x="36.072" y="1.67" class="c">gendiff</text></symbol><symbol id="3"><text y="1.67" class="c">[</text><text x="1.002" y="1.67" class="d">sadlaboka</text><text x="10.02" y="1.67" class="e">@</text><text x="11.022" y="1.67" class="c">HOME-PC</text><text x="19.038" y="1.67" class="c">fixtures]</text><text x="28.056" y="1.67" class="f">(main)</text><text x="34.068" y="1.67" class="c">$</text><text x="36.072" y="1.67" class="c">gendiff</text><text x="44.088" y="1.67" class="c">-f</text></symbol><symbol id="4"><text y="1.67" class="c">[</text><text x="1.002" y="1.67" class="d">sadlaboka</text><text x="10.02" y="1.67" class="e">@</text><text x="11.022" y="1.67" class="c">HOME-PC</text><text x="19.038" y="1.67" class="c">fixtures]</text><text x="28.056" y="1.67" class="f">(main)</text><text x="34.068" y="1.67" class="c">$</text><text x="36.072" y="1.67" class="c">gendiff</text><text x="44.088" y="1.67" class="c">-f</text><text x="47.094" y="1.67" class="c">json</text></symbol><symbol id="5"><text y="1.67" class="c">[</text><text x="1.002" y="1.67" class="d">sadlaboka</text><text x="10.02" y="1.67" class="e">@</text><text x="11.022" y="1.67" class="c">HOME-PC</text><text x="19.038" y="1.67" class="c">fixtures]</text><text x="28.056" y="1.67" class="f">(main)</text><text x="34.068" y="1.67" class="c">$</text><text x="36.072" y="1.67" class="c">gendiff</text><text x="44.088" y="1.67" class="c">-f</text><text x="47.094" y="1.67" class="c">json</text><text x="52.104" y="1.67" class="c">file3.json</text></symbol><symbol id="6"><text y="1.67" class="c">[</text><text x="1.002" y="1.67" class="d">sadlaboka</text><text x="10.02" y="1.67" class="e">@</text><text x="11.022" y="1.67" class="c">HOME-PC</text><text x="19.038" y="1.67" class="c">fixtures]</text><text x="28.056" y="1.67" class="f">(main)</text><text x="34.068" y="1.67" class="c">$</text><text x="36.072" y="1.67" class="c">gendiff</text><text x="44.088" y="1.67" class="c">-f</text><text x="47.094" y="1.67" class="c">json</text><text x="52.104" y="1.67" class="c">file3.json</text><text x="63.126" y="1.67" class="c">file4.json</text></symbol><symbol id="7"><text y="1.67" class="c">{&quot;common&quot;:</text><text x="11.022" y="1.67" class="c">{&quot;status&quot;:</text><text x="22.044" y="1.67" class="c">&quot;NESTED&quot;,</text><text x="32.064" y="1.67" class="c">&quot;value&quot;:</text><text x="41.082" y="1.67" class="c">{&quot;follow&quot;:</text><text x="52.104" y="1.67" class="c">{&quot;status&quot;:</text><text x="63.126" y="1.67" class="c">&quot;ADDED&quot;,</text><text x="72.144" y="1.67" class="c">&quot;value&quot;:</text><text x="81.162" y="1.67" class="c">&quot;false&quot;},</text><text x="91.182" y="1.67" class="c">&quot;setting1&quot;:</text><text x="103.206" y="1.67" class="c">{&quot;status&quot;:</text><text x="114.228" y="1.67" class="c">&quot;UNCHANGED&quot;,</text><text x="127.254" y="1.67" class="c">&quot;value&quot;:</text><text x="136.272" y="1.67" class="c">&quot;Value</text><text x="143.286" y="1.67" class="c">1&quot;}</text></symbol><symbol id="8"><text y="1.67" class="c">,</text><text x="2.004" y="1.67" class="c">&quot;setting2&quot;:</text><text x="14.028" y="1.67" class="c">{&quot;status&quot;:</text><text x="25.05" y="1.67" class="c">&quot;REMOVED&quot;,</text><text x="36.072" y="1.67" class="c">&quot;value&quot;:</text><text x="45.09" y="1.67" class="c">200},</text><text x="51.102" y="1.67" class="c">&quot;setting3&quot;:</text><text x="63.126" y="1.67" class="c">{&quot;status&quot;:</text><text x="74.148" y="1.67" class="c">&quot;CHANGED&quot;,</text><text x="85.17" y="1.67" class="c">&quot;first_value&quot;:</text><text x="100.2" y="1.67" class="c">&quot;true&quot;,</text><text x="108.216" y="1.67" class="c">&quot;second_value&quot;:</text><text x="124.248" y="1.67" class="c">&quot;null&quot;},</text><text x="133.266" y="1.67" class="c">&quot;setting4&quot;:</text><text x="145.29" y="1.67" class="c">{</text></symbol><symbol id="9"><text y="1.67" class="c">&quot;status&quot;:</text><text x="10.02" y="1.67" class="c">&quot;ADDED&quot;,</text><text x="19.038" y="1.67" class="c">&quot;value&quot;:</text><text x="28.056" y="1.67" class="c">&quot;blah</text><text x="34.068" y="1.67" class="c">blah&quot;},</text><text x="42.084" y="1.67" class="c">&quot;setting5&quot;:</text><text x="54.108" y="1.67" class="c">{&quot;status&quot;:</text><text x="65.13" y="1.67" class="c">&quot;ADDED&quot;,</text><text x="74.148" y="1.67" class="c">&quot;value&quot;:</text><text x="83.166" y="1.67" class="c">{&quot;key5&quot;:</text><text x="92.184" y="1.67" class="c">&quot;value5&quot;}},</text><text x="104.208" y="1.67" class="c">&quot;setting6&quot;:</text><text x="116.232" y="1.67" class="c">{&quot;status&quot;:</text><text x="127.254" y="1.67" class="c">&quot;NESTED&quot;,</text><text x="137.274" y="1.67" class="c">&quot;value&quot;:</text></symbol><symbol id="10"><text y="1.67" class="c">{&quot;doge&quot;:</text><text x="9.018" y="1.67" class="c">{&quot;status&quot;:</text><text x="20.04" y="1.67" class="c">&quot;NESTED&quot;,</text><text x="30.06" y="1.67" class="c">&quot;value&quot;:</text><text x="39.078" y="1.67" class="c">{&quot;wow&quot;:</text><text x="47.094" y="1.67" class="c">{&quot;status&quot;:</text><text x="58.116" y="1.67" class="c">&quot;CHANGED&quot;,</text><text x="69.138" y="1.67" class="c">&quot;first_value&quot;:</text><text x="84.168" y="1.67" class="c">&quot;&quot;,</text><text x="88.176" y="1.67" class="c">&quot;second_value&quot;:</text><text x="104.208" y="1.67" class="c">&quot;so</text><text x="108.216" y="1.67" class="c">much&quot;}}},</text><text x="118.236" y="1.67" class="c">&quot;key&quot;:</text><text x="125.25" y="1.67" class="c">{&quot;status&quot;:</text><text x="136.272" y="1.67" class="c">&quot;UNCHANGED</text></symbol><symbol id="11"><text y="1.67" class="c">&quot;,</text><text x="3.006" y="1.67" class="c">&quot;value&quot;:</text><text x="12.024" y="1.67" class="c">&quot;value&quot;},</text><text x="22.044" y="1.67" class="c">&quot;ops&quot;:</text><text x="29.058" y="1.67" class="c">{&quot;status&quot;:</text><text x="40.08" y="1.67" class="c">&quot;ADDED&quot;,</text><text x="49.098" y="1.67" class="c">&quot;value&quot;:</text><text x="58.116" y="1.67" class="c">&quot;vops&quot;}}}}},</text><text x="71.142" y="1.67" class="c">&quot;group1&quot;:</text><text x="81.162" y="1.67" class="c">{&quot;status&quot;:</text><text x="92.184" y="1.67" class="c">&quot;NESTED&quot;,</text><text x="102.204" y="1.67" class="c">&quot;value&quot;:</text><text x="111.222" y="1.67" class="c">{&quot;baz&quot;:</text><text x="119.238" y="1.67" class="c">{&quot;status&quot;:</text><text x="130.26" y="1.67" class="c">&quot;CHANGED&quot;,</text><text x="141.282" y="1.67" class="c">&quot;firs</text></symbol><symbol id="12"><text y="1.67" class="c">t_value&quot;:</text><text x="10.02" y="1.67" class="c">&quot;bas&quot;,</text><text x="17.034" y="1.67" class="c">&quot;second_value&quot;:</text><text x="33.066" y="1.67" class="c">&quot;bars&quot;},</text><text x="42.084" y="1.67" class="c">&quot;foo&quot;:</text><text x="49.098" y="1.67" class="c">{&quot;status&quot;:</text><text x="60.12" y="1.67" class="c">&quot;UNCHANGED&quot;,</text><text x="73.146" y="1.67" class="c">&quot;value&quot;:</text><text x="82.164" y="1.67" class="c">&quot;bar&quot;},</text><text x="90.18" y="1.67" class="c">&quot;nest&quot;:</text><text x="98.196" y="1.67" class="c">{&quot;status&quot;:</text><text x="109.218" y="1.67" class="c">&quot;CHANGED&quot;,</text><text x="120.24" y="1.67" class="c">&quot;first_value&quot;:</text><text x="135.27" y="1.67" class="c">{&quot;key&quot;:</text><text x="143.286" y="1.67" class="c">&quot;va</text></symbol><symbol id="13"><text y="1.67" class="c">lue&quot;},</text><text x="7.014" y="1.67" class="c">&quot;second_value&quot;:</text><text x="23.046" y="1.67" class="c">&quot;str&quot;}}},</text><text x="33.066" y="1.67" class="c">&quot;group2&quot;:</text><text x="43.086" y="1.67" class="c">{&quot;status&quot;:</text><text x="54.108" y="1.67" class="c">&quot;REMOVED&quot;,</text><text x="65.13" y="1.67" class="c">&quot;value&quot;:</text><text x="74.148" y="1.67" class="c">{&quot;abc&quot;:</text><text x="82.164" y="1.67" class="c">12345,</text><text x="89.178" y="1.67" class="c">&quot;deep&quot;:</text><text x="97.194" y="1.67" class="c">{&quot;id&quot;:</text><text x="104.208" y="1.67" class="c">45}}},</text><text x="111.222" y="1.67" class="c">&quot;group3&quot;:</text><text x="121.242" y="1.67" class="c">{&quot;status&quot;:</text><text x="132.264" y="1.67" class="c">&quot;ADDED&quot;,</text><text x="141.282" y="1.67" class="c">&quot;valu</text></symbol><symbol id="14"><text y="1.67" class="c">e&quot;:</text><text x="4.008" y="1.67" class="c">{&quot;deep&quot;:</text><text x="13.026" y="1.67" class="c">{&quot;id&quot;:</text><text x="20.04" y="1.67" class="c">{&quot;number&quot;:</text><text x="31.062" y="1.67" class="c">45}},</text><text x="37.074" y="1.67" class="c">&quot;fee&quot;:</text><text x="44.088" y="1.67" class="c">100500}}}</text></symbol><symbol id="a"><path fill="transparent" d="M0 0h146v39H0z"/></symbol></defs><path class="a" d="M0 0h146v84.669H0z"/><g style="animation-duration:20.057089s;animation-iteration-count:infinite;animation-name:h;animation-timing-function:steps(1,end)"><svg width="7154"><svg><use xlink:href="#a"/></svg><svg x="146"><use xlink:href="#a"/></svg><svg x="292"><use xlink:href="#a"/></svg><svg x="438"><use xlink:href="#a"/><use xlink:href="#1"/></svg><svg x="584"><use xlink:href="#a"/><text y="1.67" class="c">[</text><text x="1.002" y="1.67" class="d">sadlaboka</text><text x="10.02" y="1.67" class="e">@</text><text x="11.022" y="1.67" class="c">HOME-PC</text><text x="19.038" y="1.67" class="c">fixtures]</text><text x="28.056" y="1.67" class="f">(main)</text><text x="34.068" y="1.67" class="c">$</text><text x="36.072" y="1.67" class="c">g</text></svg><svg x="730"><use xlink:href="#a"/><text y="1.67" class="c">[</text><text x="1.002" y="1.67" class="d">sadlaboka</text><text x="10.02" y="1.67" class="e">@</text><text x="11.022" y="1.67" class="c">HOME-PC</text><text x="19.038" y="1.67" class="c">fixtures]</text><text x="28.056" y="1.67" class="f">(main)</text><text x="34.068" y="1.67" class="c">$</text><text x="36.072" y="1.67" class="c">ge</text></svg><svg x="876"><use xlink:href="#a"/><text y="1.67" class="c">[</text><text x="1.002" y="1.67" class="d">sadlaboka</text><text x="10.02" y="1.67" class="e">@</text><text x="11.022" y="1.67" class="c">HOME-PC</text><text x="19.038" y="1.67" class="c">fixtures]</text><text x="28.056" y="1.67" class="f">(main)</text><text x="34.068" y="1.67" class="c">$</text><text x="36.072" y="1.67" class="c">gen</text></svg><svg x="1022"><use xlink:href="#a"/><text y="1.67" class="c">[</text><text x="1.002" y="1.67" class="d">sadlaboka</text><text x="10.02" y="1.67" class="e">@</text><text x="11.022" y="1.67" class="c">HOME-PC</text><text x="19.038" y="1.67" class="c">fixtures]</text><text x="28.056" y="1.67" class="f">(main)</text><text x="34.068" y="1.67" class="c">$</text><text x="36.072" y="1.67" class="c">gend</text></svg><svg x="1168"><use xlink:href="#a"/><text y="1.67" class="c">[</text><text x="1.002" y="1.67" class="d">sadlaboka</text><text x="10.02" y="1.67" class="e">@</text><text x="11.022" y="1.67" class="c">HOME-PC</text><text x="19.038" y="1.67" class="c">fixtures]</text><text x="28.056" y="1.67" class="f">(main)</text><text x="34.068" y="1.67" class="c">$</text><text x="36.072" y="1.67" class="c">gendi</text></svg><svg x="1314"><use xlink:href="#a"/><text y="1.67" class="c">[</text><text x="1.002" y="1.67" class="d">sadlaboka</text><text x="10.02" y="1.67" class="e">@</text><text x="11.022" y="1.67" class="c">HOME-PC</text><text x="19.038" y="1.67" class="c">fixtures]</text><text x="28.056" y="1.67" class="f">(main)</text><text x="34.068" y="1.67" class="c">$</text><text x="36.072" y="1.67" class="c">gendif</text></svg><svg x="1460"><use xlink:href="#a"/><use xlink:href="#2"/></svg><svg x="1606"><use xlink:href="#a"/><use xlink:href="#2"/></svg><svg x="1752"><use xlink:href="#a"/><text y="1.67" class="c">[</text><text x="1.002" y="1.67" class="d">sadlaboka</text><text x="10.02" y="1.67" class="e">@</text><text x="11.022" y="1.67" class="c">HOME-PC</text><text x="19.038" y="1.67" class="c">fixtures]</text><text x="28.056" y="1.67" class="f">(main)</text><text x="34.068" y="1.67" class="c">$</text><text x="36.072" y="1.67" class="c">gendiff</text><text x="44.088" y="1.67" class="c">-</text></svg><svg x="1898"><use xlink:href="#a"/><use xlink:href="#3"/></svg><svg x="2044"><use xlink:href="#a"/><use xlink:href="#3"/></svg><svg x="2190"><use xlink:href="#a"/><text y="1.67" class="c">[</text><text x="1.002" y="1.67" class="d">sadlaboka</text><text x="10.02" y="1.67" class="e">@</text><text x="11.022" y="1.67" class="c">HOME-PC</text><text x="19.038" y="1.67" class="c">fixtures]</text><text x="28.056" y="1.67" class="f">(main)</text><text x="34.068" y="1.67" class="c">$</text><text x="36.072" y="1.67" class="c">gendiff</text><text x="44.088" y="1.67" class="c">-f</text><text x="47.094" y="1.67" class="c">j</text></svg><svg x="2336"><use xlink:href="#a"/><text y="1.67" class="c">[</text><text x="1.002" y="1.67" class="d">sadlaboka</text><text x="10.02" y="1.67" class="e">@</text><text x="11.022" y="1.67" class="c">HOME-PC</text><text x="19.038" y="1.67" class="c">fixtures]</text><text x="28.056" y="1.67" class="f">(main)</text><text x="34.068" y="1.67" class="c">$</text><text x="36.072" y="1.67" class="c">gendiff</text><text x="44.088" y="1.67" class="c">-f</text><text x="47.094" y="1.67" class="c">js</text></svg><svg x="2482"><use xlink:href="#a"/><text y="1.67" class="c">[</text><text x="1.002" y="1.67" class="d">sadlaboka</text><text x="10.02" y="1.67" class="e">@</text><text x="11.022" y="1.67" class="c">HOME-PC</text><text x="19.038" y="1.67" class="c">fixtures]</text><text x="28.056" y="1.67" class="f">(main)</text><text x="34.068" y="1.67" class="c">$</text><text x="36.072" y="1.67" class="c">gendiff</text><text x="44.088" y="1.67" class="c">-f</text><text x="47.094" y="1.67" class="c">jso</text></svg><svg x="2628"><use xlink:href="#a"/><use xlink:href="#4"/></svg><svg x="2774"><use xlink:href="#a"/><use xlink:href="#4"/></svg><svg x="2920"><use xlink:href="#a"/><text y="1.67" class="c">[</text><text x="1.002" y="1.67" class="d">sadlaboka</text><text x="10.02" y="1.67" class="e">@</text><text x="11.022" y="1.67" class="c">HOME-PC</text><text x="19.038" y="1.67" class="c">fixtures]</text><text x="28.056" y="1.67" class="f">(main)</text><text x="34.068" y="1.67" class="c">$</text><text x="36.072" y="1.67" class="c">gendiff</text><text x="44.088" y="1.67" class="c">-f</text><text x="47.094" y="1.67" class="c">json</text><text x="52.104" y="1.67" class="c">f</text></svg><svg x="3066"><use xlink:href="#a"/><text y="1.67" class="c">[</text><text x="1.002" y="1.67" class="d">sadlaboka</text><text x="10.02" y="1.67" class="e">@</text><text x="11.022" y="1.67" class="c">HOME-PC</text><text x="19.038" y="1.67" class="c">fixtures]</text><text x="28.056" y="1.67" class="f">(main)</text><text x="34.068" y="1.67" class="c">$</text><text x="36.072" y="1.67" class="c">gendiff</text><text x="44.088" y="1.67" class="c">-f</text><text x="47.094" y="1.67" class="c">json</text><text x="52.104" y="1.67" class="c">fi</text></svg><svg x="3212"><use xlink:href="#a"/><text y="1.67" class="c">[</text><text x="1.002" y="1.67" class="d">sadlaboka</text><text x="10.02" y="1.67" class="e">@</text><text x="11.022" y="1.67" class="c">HOME-PC</text><text x="19.038" y="1.67" class="c">fixtures]</text><text x="28.056" y="1.67" class="f">(main)</text><text x="34.068" y="1.67" class="c">$</text><text x="36.072" y="1.67" class="c">gendiff</text><text x="44.088" y="1.67" class="c">-f</text><text x="47.094" y="1.67" class="c">json</text><text x="52.104" y="1.67" class="c">fil</text></svg><svg x="3358"><use xlink:href="#a"/><text y="1.67" class="c">[</text><text x="1.002" y="1.67" class="d">sadlaboka</text><text x="10.02" y="1.67" class="e">@</text><text x="11.022" y="1.67" class="c">HOME-PC</text><text x="19.038" y="1.67" class="c">fixtures]</text><text x="28.056" y="1.67" class="f">(main)</text><text x="34.068" y="1.67" class="c">$</text><text x="36.072" y="1.67" class="c">gendiff</text><text x="44.088" y="1.67" class="c">-f</text><text x="47.094" y="1.67" class="c">json</text><text x="52.104" y="1.67" class="c">file</text></svg><svg x="3504"><use xlink:href="#a"/><text y="1.67" class="c">[</text><text x="1.002" y="1.67" class="d">sadlaboka</text><text x="10.02" y="1.67" class="e">@</text><text x="11.022" y="1.67" class="c">HOME-PC</text><text x="19.038" y="1.67" class="c">fixtures]</text><text x="28.056" y="1.67" class="f">(main)</text><text x="34.068" y="1.67" class="c">$</text><text x="36.072" y="1.67" class="c">gendiff</text><text x="44.088" y="1.67" class="c">-f</text><text x="47.094" y="1.67" class="c">json</text><text x="52.104" y="1.67" class="c">file3</text></svg><svg x="3650"><use xlink:href="#a"/><text y="1.67" class="c">[</text><text x="1.002" y="1.67" class="d">sadlaboka</text><text x="10.02" y="1.67" class="e">@</text><text x="11.022" y="1.67" class="c">HOME-PC</text><text x="19.038" y="1.67" class="c">fixtures]</text><text x="28.056" y="1.67" class="f">(main)</text><text x="34.068" y="1.67" class="c">$</text><text x="36.072" y="1.67" class="c">gendiff</text><text x="44.088" y="1.67" class="c">-f</text><text x="47.094" y="1.67" class="c">json</text><text x="52.104" y="1.67" class="c">file3.</text></svg><svg x="3796"><use xlink:href="#a"/><text y="1.67" class="c">[</text><text x="1.002" y="1.67" class="d">sadlaboka</text><text x="10.02" y="1.67" class="e">@</text><text x="11.022" y="1.67" class="c">HOME-PC</text><text x="19.038" y="1.67" class="c">fixtures]</text><text x="28.056" y="1.67" class="f">(main)</text><text x="34.068" y="1.67" class="c">$</text><text x="36.072" y="1.67" class="c">gendiff</text><text x="44.088" y="1.67" class="c">-f</text><text x="47.094" y="1.67" class="c">json</text><text x="52.104" y="1.67" class="c">file3.j</text></svg><svg x="3942"><use xlink:href="#a"/><text y="1.67" class="c">[</text><text x="1.002" y="1.67" class="d">sadlaboka</text><text x="10.02" y="1.67" class="e">@</text><text x="11.022" y="1.67" class="c">HOME-PC</text><text x="19.038" y="1.67" class="c">fixtures]</text><text x="28.056" y="1.67" class="f">(main)</text><text x="34.068" y="1.67" class="c">$</text><text x="36.072" y="1.67" class="c">gendiff</text><text x="44.088" y="1.67" class="c">-f</text><text x="47.094" y="1.67" class="c">json</text><text x="52.104" y="1.67" class="c">file3.js</text></svg><svg x="4088"><use xlink:href="#a"/><text y="1.67" class="c">[</text><text x="1.002" y="1.67" class="d">sadlaboka</text><text x="10.02" y="1.67" class="e">@</text><text x="11.022" y="1.67" class="c">HOME-PC</text><text x="19.038" y="1.67" class="c">fixtures]</text><text x="28.056" y="1.67" class="f">(main)</text><text x="34.068" y="1.67" class="c">$</text><text x="36.072" y="1.67" class="c">gendiff</text><text x="44.088" y="1.67" class="c">-f</text><text x="47.094" y="1.67" class="c">json</text><text x="52.104" y="1.67" class="c">file3.jso</text></svg><svg x="4234"><use xlink:href="#a"/><use xlink:href="#5"/></svg><svg x="4380"><use xlink:href="#a"/><use xlink:href="#5"/></svg><svg x="4526"><use xlink:href="#a"/><text y="1.67" class="c">[</text><text x="1.002" y="1.67" class="d">sadlaboka</text><text x="10.02" y="1.67" class="e">@</text><text x="11.022" y="1.67" class="c">HOME-PC</text><text x="19.038" y="1.67" class="c">fixtures]</text><text x="28.056" y="1.67" class="f">(main)</text><text x="34.068" y="1.67" class="c">$</text><text x="36.072" y="1.67" class="c">gendiff</text><text x="44.088" y="1.67" class="c">-f</text><text x="47.094" y="1.67" class="c">json</text><text x="52.104" y="1.67" class="c">file3.json</text><text x="63.126" y="1.67" class="c">f</text></svg><svg x="4672"><use xlink:href="#a"/><text y="1.67" class="c">[</text><text x="1.002" y="1.67" class="d">sadlaboka</text><text x="10.02" y="1.67" class="e">@</text><text x="11.022" y="1.67" class="c">HOME-PC</text><text x="19.038" y="1.67" class="c">fixtures]</text><text x="28.056" y="1.67" class="f">(main)</text><text x="34.068" y="1.67" class="c">$</text><text x="36.072" y="1.67" class="c">gendiff</text><text x="44.088" y="1.67" class="c">-f</text><text x="47.094" y="1.67" class="c">json</text><text x="52.104" y="1.67" class="c">file3.json</text><text x="63.126" y="1.67" class="c">fi</text></svg><svg x="4818"><use xlink:href="#a"/><text y="1.67" class="c">[</text><text x="1.002" y="1.67" class="d">sadlaboka</text><text x="10.02" y="1.67" class="e">@</text><text x="11.022" y="1.67" class="c">HOME-PC</text><text x="19.038" y="1.67" class="c">fixtures]</text><text x="28.056" y="1.67" class="f">(main)</text><text x="34.068" y="1.67" class="c">$</text><text x="36.072" y="1.67" class="c">gendiff</text><text x="44.088" y="1.67" class="c">-f</text><text x="47.094" y="1.67" class="c">json</text><text x="52.104" y="1.67" class="c">file3.json</text><text x="63.126" y="1.67" class="c">fil</text></svg><svg x="4964"><use xlink:href="#a"/><text y="1.67" class="c">[</text><text x="1.002" y="1.67" class="d">sadlaboka</text><text x="10.02" y="1.67" class="e">@</text><text x="11.022" y="1.67" class="c">HOME-PC</text><text x="19.038" y="1.67" class="c">fixtures]</text><text x="28.056" y="1.67" class="f">(main)</text><text x="34.068" y="1.67" class="c">$</text><text x="36.072" y="1.67" class="c">gendiff</text><text x="44.088" y="1.67" class="c">-f</text><text x="47.094" y="1.67" class="c">json</text><text x="52.104" y="1.67" class="c">file3.json</text><text x="63.126" y="1.67" class="c">file</text></svg><svg x="5110"><use xlink:href="#a"/><text y="1.67" class="c">[</text><text x="1.002" y="1.67" class="d">sadlaboka</text><text x="10.02" y="1.67" class="e">@</text><text x="11.022" y="1.67" class="c">HOME-PC</text><text x="19.038" y="1.67" class="c">fixtures]</text><text x="28.056" y="1.67" class="f">(main)</text><text x="34.068" y="1.67" class="c">$</text><text x="36.072" y="1.67" class="c">gendiff</text><text x="44.088" y="1.67" class="c">-f</text><text x="47.094" y="1.67" class="c">json</text><text x="52.104" y="1.67" class="c">file3.json</text><text x="63.126" y="1.67" class="c">file4</text></svg><svg x="5256"><use xlink:href="#a"/><text y="1.67" class="c">[</text><text x="1.002" y="1.67" class="d">sadlaboka</text><text x="10.02" y="1.67" class="e">@</text><text x="11.022" y="1.67" class="c">HOME-PC</text><text x="19.038" y="1.67" class="c">fixtures]</text><text x="28.056" y="1.67" class="f">(main)</text><text x="34.068" y="1.67" class="c">$</text><text x="36.072" y="1.67" class="c">gendiff</text><text x="44.088" y="1.67" class="c">-f</text><text x="47.094" y="1.67" class="c">json</text><text x="52.104" y="1.67" class="c">file3.json</text><text x="63.126" y="1.67" class="c">file4.</text></svg><svg x="5402"><use xlink:href="#a"/><text y="1.67" class="c">[</text><text x="1.002" y="1.67" class="d">sadlaboka</text><text x="10.02" y="1.67" class="e">@</text><text x="11.022" y="1.67" class="c">HOME-PC</text><text x="19.038" y="1.67" class="c">fixtures]</text><text x="28.056" y="1.67" class="f">(main)</text><text x="34.068" y="1.67" class="c">$</text><text x="36.072" y="1.67" class="c">gendiff</text><text x="44.088" y="1.67" class="c">-f</text><text x="47.094" y="1.67" class="c">json</text><text x="52.104" y="1.67" class="c">file3.json</text><text x="63.126" y="1.67" class="c">file4.j</text></svg><svg x="5548"><use xlink:href="#a"/><text y="1.67" class="c">[</text><text x="1.002" y="1.67" class="d">sadlaboka</text><text x="10.02" y="1.67" class="e">@</text><text x="11.022" y="1.67" class="c">HOME-PC</text><text x="19.038" y="1.67" class="c">fixtures]</text><text x="28.056" y="1.67" class="f">(main)</text><text x="34.068" y="1.67" class="c">$</text><text x="36.072" y="1.67" class="c">gendiff</text><text x="44.088" y="1.67" class="c">-f</text><text x="47.094" y="1.67" class="c">json</text><text x="52.104" y="1.67" class="c">file3.json</text><text x="63.126" y="1.67" class="c">file4.js</text></svg><svg x="5694"><use xlink:href="#a"/><text y="1.67" class="c">[</text><text x="1.002" y="1.67" class="d">sadlaboka</text><text x="10.02" y="1.67" class="e">@</text><text x="11.022" y="1.67" class="c">HOME-PC</text><text x="19.038" y="1.67" class="c">fixtures]</text><text x="28.056" y="1.67" class="f">(main)</text><text x="34.068" y="1.67" class="c">$</text><text x="36.072" y="1.67" class="c">gendiff</text><text x="44.088" y="1.67" class="c">-f</text><text x="47.094" y="1.67" class="c">json</text><text x="52.104" y="1.67" class="c">file3.json</text><text x="63.126" y="1.67" class="c">file4.jso</text></svg><svg x="5840"><use xlink:href="#a"/><use xlink:href="#6"/></svg><svg x="5986"><use xlink:href="#a"/><use xlink:href="#6"/></svg><svg x="6132"><use xlink:href="#a"/><use xlink:href="#6"/></svg><svg x="6278"><use xlink:href="#a"/><use xlink:href="#6"/><use xlink:href="#7" y="2.171"/><use xlink:href="#8" y="4.342"/><use xlink:href="#9" y="6.513"/><use xlink:href="#10" y="8.684"/><use xlink:href="#11" y="10.855"/><use xlink:href="#12" y="13.026"/><use xlink:href="#13" y="15.197"/><text y="19.038" class="c">e&quot;</text></svg><svg x="6424"><use xlink:href="#a"/><use xlink:href="#6"/><use xlink:href="#7" y="2.171"/><use xlink:href="#8" y="4.342"/><use xlink:href="#9" y="6.513"/><use xlink:href="#10" y="8.684"/><use xlink:href="#11" y="10.855"/><use xlink:href="#12" y="13.026"/><use xlink:href="#13" y="15.197"/><use xlink:href="#14" y="17.368"/></svg><svg x="6570"><use xlink:href="#a"/><use xlink:href="#6"/><use xlink:href="#7" y="2.171"/><use xlink:href="#8" y="4.342"/><use xlink:href="#9" y="6.513"/><use xlink:href="#10" y="8.684"/><use xlink:href="#11" y="10.855"/><use xlink:href="#12" y="13.026"/><use xlink:href="#13" y="15.197"/><use xlink:href="#14" y="17.368"/></svg><svg x="6716"><use xlink:href="#a"/><use xlink:href="#6"/><use xlink:href="#7" y="2.171"/><use xlink:href="#8" y="4.342"/><use xlink:href="#9" y="6.513"/><use xlink:href="#10" y="8.684"/><use xlink:href="#11" y="10.855"/><use xlink:href="#12" y="13.026"/><use xlink:href="#13" y="15.197"/><use xlink:href="#14" y="17.368"/></svg><svg x="6862"><use xlink:href="#a"/><use xlink:href="#6"/><use xlink:href="#7" y="2.171"/><use xlink:href="#8" y="4.342"/><use xlink:href="#9" y="6.513"/><use xlink:href="#10" y="8.684"/><use xlink:href="#11" y="10.855"/><use xlink:href="#12" y="13.026"/><use xlink:href="#13" y="15.197"/><use xlink:href="#14" y="17.368"/><use xlink:href="#1" y="19.539"/></svg><svg x="7008"><use xlink:href="#a"/><use xlink:href="#6"/><use xlink:href="#7" y="2.171"/><use xlink:href="#8" y="4.342"/><use xlink:href="#9" y="6.513"/><use xlink:href="#10" y="8.684"/><use xlink:href="#11" y="10.855"/><use xlink:href="#12" y="13.026"/><use xlink:href="#13" y="15.197"/><use xlink:href="#14" y="17.368"/><use xlink:href="#1" y="19.539"/><text y="23.38" class="c">exit</text></svg></svg></g></g></svg></svg>