<svg xmlns="http://www.w3.org/2000/svg" xmlns:xlink="http://www.w3.org/1999/xlink" width="1630" height="863.27"><rect width="1630" height="863.27" rx="5" ry="5" class="a"/><svg y="0%" x="0%"><circle cx="20" cy="20" r="6" fill="#ff5f58"/><circle cx="40" cy="20" r="6" fill="#ffbd2e"/><circle cx="60" cy="20" r="6" fill="#18c132"/></svg><svg height="803.27" viewBox="0 0 159 80.327" width="1590" x="15" xmlns="http://www.w3.org/2000/svg" xmlns:xlink="http://www.w3.org/1999/xlink" y="50"><style>@keyframes l{0%{transform:translateX(0)}1.7%{transform:translateX(-318px)}1.8%{transform:translateX(-477px)}13.6%{transform:translateX(-636px)}15.4%{transform:translateX(-795px)}16.4%{transform:translateX(-954px)}17.6%{transform:translateX(-1113px)}19.2%{transform:translateX(-1272px)}20.4%{transform:translateX(-1431px)}21.6%{transform:translateX(-1590px)}28.4%{transform:translateX(-1749px)}30.4%{transform:translateX(-1908px)}31.2%{transform:translateX(-2067px)}32.8%{transform:translateX(-2226px)}33.2%{transform:translateX(-2385px)}38.1%{transform:translateX(-2544px)}39.3%{transform:translateX(-2703px)}45.2%{transform:translateX(-2862px)}46.2%{transform:translateX(-3021px)}46.8%{transform:translateX(-3180px)}48.7%{transform:translateX(-3339px)}50.7%{transform:translateX(-3498px)}51.8%{transform:translateX(-3657px)}53.6%{transform:translateX(-3816px)}54.3%{transform:translateX(-3975px)}56.4%{transform:translateX(-4134px)}57.4%{transform:translateX(-4293px)}64.6%{transform:translateX(-4452px)}65.3%{transform:translateX(-4611px)}66.4%{transform:translateX(-4770px)}67.2%{transform:translateX(-4929px)}80.9%{transform:translateX(-5247px)}81.4%{transform:translateX(-5406px)}81.5%{transform:translateX(-5724px)}81.6%{transform:translateX(-5883px)}to{transform:translateX(-6042px)}}.a{fill:#282d35}.f,.g,.h,.i{fill:#fff;white-space:pre}.g,.h,.i{fill:#a8cc8c;font-weight:700}.h,.i{fill:#dbab79}.i{fill:#e88388}</style><g font-family="Monaco,Consolas,Menlo,'Bitstream Vera Sans Mono','Powerline Symbols',monospace" font-size="1.67"><defs><symbol id="1"><text y="1.67" class="f">[</text><text x="1.002" y="1.67" class="g">sadlaboka</text><text x="10.02" y="1.67" class="h">@</text><text x="11.022" y="1.67" class="f">HOME-PC</text><text x="19.038" y="1.67" class="f">fixtures]</text><text x="28.056" y="1.67" class="i">(main)</text><text x="34.068" y="1.67" class="f">$</text></symbol><symbol id="2"><text y="1.67" class="f">[</text><text x="1.002" y="1.67" class="g">sadlaboka</text><text x="10.02" y="1.67" class="h">@</text><text x="11.022" y="1.67" class="f">HOME-PC</text><text x="19.038" y="1.67" class="f">fixtures]</text><text x="28.056" y="1.67" class="i">(main)</text><text x="34.068" y="1.67" class="f">$</text><text x="36.072" y="1.67" class="f">gendiff</text></symbol><symbol id="3"><text y="1.67" class="f">[</text><text x="1.002" y="1.67" class="g">sadlaboka</text><text x="10.02" y="1.67" class="h">@</text><text x="11.022" y="1.67" class="f">HOME-PC</text><text x="19.038" y="1.67" class="f">fixtures]</text><text x="28.056" y="1.67" class="i">(main)</text><text x="34.068" y="1.67" class="f">$</text><text x="36.072" y="1.67" class="f">gendiff</text><text x="44.088" y="1.67" class="f">file1.yml</text></symbol><symbol id="4"><text y="1.67" class="f">[</text><text x="1.002" y="1.67" class="g">sadlaboka</text><text x="10.02" y="1.67" class="h">@</text><text x="11.022" y="1.67" class="f">HOME-PC</text><text x="19.038" y="1.67" class="f">fixtures]</text><text x="28.056" y="1.67" class="i">(main)</text><text x="34.068" y="1.67" class="f">$</text><text x="36.072" y="1.67" class="f">gendiff</text><text x="44.088" y="1.67" class="f">file1.yml</text><text x="54.108" y="1.67" class="f">file2.yaml</text></symbol><symbol id="5"><text y="1.67" class="f">{</text></symbol><symbol id="6"><text x="2.004" y="1.67" class="f">-</text><text x="4.008" y="1.67" class="f">follow:</text><text x="12.024" y="1.67" class="f">false</text></symbol><symbol id="7"><text x="4.008" y="1.67" class="f">host:</text><text x="10.02" y="1.67" class="f">hexlet.io</text></symbol><symbol id="8"><text x="2.004" y="1.67" class="f">-</text><text x="4.008" y="1.67" class="f">proxy:</text><text x="11.022" y="1.67" class="f">123.234.53.22</text></symbol><symbol id="9"><text x="2.004" y="1.67" class="f">-</text><text x="4.008" y="1.67" class="f">timeout:</text><text x="13.026" y="1.67" class="f">50</text></symbol><symbol id="10"><text x="2.004" y="1.67" class="f">+</text><text x="4.008" y="1.67" class="f">timeout:</text><text x="13.026" y="1.67" class="f">20</text></symbol><symbol id="11"><text x="2.004" y="1.67" class="f">+</text><text x="4.008" y="1.67" class="f">verbose:</text><text x="13.026" y="1.67" class="f">true</text></symbol><symbol id="12"><text y="1.67" class="f">}</text></symbol><symbol id="a"><path fill="transparent" d="M0 0h159v37H0z"/></symbol><symbol id="b"><path fill="#6f7683" d="M0 0h1.102v2.171H0z"/></symbol></defs><path class="a" d="M0 0h159v80.327H0z"/><g style="animation-duration:10.611332s;animation-iteration-count:infinite;animation-name:l;animation-timing-function:steps(1,end)"><svg width="6201"><svg><use xlink:href="#a"/><use xlink:href="#b" x="-.004"/></svg><svg x="159"><use xlink:href="#a"/><use xlink:href="#b" x="-.004"/></svg><svg x="318"><use xlink:href="#a"/><use xlink:href="#b" x="-.004"/></svg><svg x="477"><use xlink:href="#a"/><use xlink:href="#b" x="35.996"/><use xlink:href="#1"/></svg><svg x="636"><use xlink:href="#a"/><use xlink:href="#b" x="36.996"/><text y="1.67" class="f">[</text><text x="1.002" y="1.67" class="g">sadlaboka</text><text x="10.02" y="1.67" class="h">@</text><text x="11.022" y="1.67" class="f">HOME-PC</text><text x="19.038" y="1.67" class="f">fixtures]</text><text x="28.056" y="1.67" class="i">(main)</text><text x="34.068" y="1.67" class="f">$</text><text x="36.072" y="1.67" class="f">g</text></svg><svg x="795"><use xlink:href="#a"/><use xlink:href="#b" x="37.996"/><text y="1.67" class="f">[</text><text x="1.002" y="1.67" class="g">sadlaboka</text><text x="10.02" y="1.67" class="h">@</text><text x="11.022" y="1.67" class="f">HOME-PC</text><text x="19.038" y="1.67" class="f">fixtures]</text><text x="28.056" y="1.67" class="i">(main)</text><text x="34.068" y="1.67" class="f">$</text><text x="36.072" y="1.67" class="f">ge</text></svg><svg x="954"><use xlink:href="#a"/><use xlink:href="#b" x="38.996"/><text y="1.67" class="f">[</text><text x="1.002" y="1.67" class="g">sadlaboka</text><text x="10.02" y="1.67" class="h">@</text><text x="11.022" y="1.67" class="f">HOME-PC</text><text x="19.038" y="1.67" class="f">fixtures]</text><text x="28.056" y="1.67" class="i">(main)</text><text x="34.068" y="1.67" class="f">$</text><text x="36.072" y="1.67" class="f">gen</text></svg><svg x="1113"><use xlink:href="#a"/><use xlink:href="#b" x="39.996"/><text y="1.67" class="f">[</text><text x="1.002" y="1.67" class="g">sadlaboka</text><text x="10.02" y="1.67" class="h">@</text><text x="11.022" y="1.67" class="f">HOME-PC</text><text x="19.038" y="1.67" class="f">fixtures]</text><text x="28.056" y="1.67" class="i">(main)</text><text x="34.068" y="1.67" class="f">$</text><text x="36.072" y="1.67" class="f">gend</text></svg><svg x="1272"><use xlink:href="#a"/><use xlink:href="#b" x="40.996"/><text y="1.67" class="f">[</text><text x="1.002" y="1.67" class="g">sadlaboka</text><text x="10.02" y="1.67" class="h">@</text><text x="11.022" y="1.67" class="f">HOME-PC</text><text x="19.038" y="1.67" class="f">fixtures]</text><text x="28.056" y="1.67" class="i">(main)</text><text x="34.068" y="1.67" class="f">$</text><text x="36.072" y="1.67" class="f">gendi</text></svg><svg x="1431"><use xlink:href="#a"/><use xlink:href="#b" x="41.996"/><text y="1.67" class="f">[</text><text x="1.002" y="1.67" class="g">sadlaboka</text><text x="10.02" y="1.67" class="h">@</text><text x="11.022" y="1.67" class="f">HOME-PC</text><text x="19.038" y="1.67" class="f">fixtures]</text><text x="28.056" y="1.67" class="i">(main)</text><text x="34.068" y="1.67" class="f">$</text><text x="36.072" y="1.67" class="f">gendif</text></svg><svg x="1590"><use xlink:href="#a"/><use xlink:href="#b" x="42.996"/><use xlink:href="#2"/></svg><svg x="1749"><use xlink:href="#a"/><use xlink:href="#b" x="43.996"/><use xlink:href="#2"/></svg><svg x="1908"><use xlink:href="#a"/><use xlink:href="#b" x="44.996"/><text y="1.67" class="f">[</text><text x="1.002" y="1.67" class="g">sadlaboka</text><text x="10.02" y="1.67" class="h">@</text><text x="11.022" y="1.67" class="f">HOME-PC</text><text x="19.038" y="1.67" class="f">fixtures]</text><text x="28.056" y="1.67" class="i">(main)</text><text x="34.068" y="1.67" class="f">$</text><text x="36.072" y="1.67" class="f">gendiff</text><text x="44.088" y="1.67" class="f">f</text></svg><svg x="2067"><use xlink:href="#a"/><use xlink:href="#b" x="45.996"/><text y="1.67" class="f">[</text><text x="1.002" y="1.67" class="g">sadlaboka</text><text x="10.02" y="1.67" class="h">@</text><text x="11.022" y="1.67" class="f">HOME-PC</text><text x="19.038" y="1.67" class="f">fixtures]</text><text x="28.056" y="1.67" class="i">(main)</text><text x="34.068" y="1.67" class="f">$</text><text x="36.072" y="1.67" class="f">gendiff</text><text x="44.088" y="1.67" class="f">fi</text></svg><svg x="2226"><use xlink:href="#a"/><use xlink:href="#b" x="46.996"/><text y="1.67" class="f">[</text><text x="1.002" y="1.67" class="g">sadlaboka</text><text x="10.02" y="1.67" class="h">@</text><text x="11.022" y="1.67" class="f">HOME-PC</text><text x="19.038" y="1.67" class="f">fixtures]</text><text x="28.056" y="1.67" class="i">(main)</text><text x="34.068" y="1.67" class="f">$</text><text x="36.072" y="1.67" class="f">gendiff</text><text x="44.088" y="1.67" class="f">fil</text></svg><svg x="2385"><use xlink:href="#a"/><use xlink:href="#b" x="47.996"/><text y="1.67" class="f">[</text><text x="1.002" y="1.67" class="g">sadlaboka</text><text x="10.02" y="1.67" class="h">@</text><text x="11.022" y="1.67" class="f">HOME-PC</text><text x="19.038" y="1.67" class="f">fixtures]</text><text x="28.056" y="1.67" class="i">(main)</text><text x="34.068" y="1.67" class="f">$</text><text x="36.072" y="1.67" class="f">gendiff</text><text x="44.088" y="1.67" class="f">file</text></svg><svg x="2544"><use xlink:href="#a"/><use xlink:href="#b" x="48.996"/><text y="1.67" class="f">[</text><text x="1.002" y="1.67" class="g">sadlaboka</text><text x="10.02" y="1.67" class="h">@</text><text x="11.022" y="1.67" class="f">HOME-PC</text><text x="19.038" y="1.67" class="f">fixtures]</text><text x="28.056" y="1.67" class="i">(main)</text><text x="34.068" y="1.67" class="f">$</text><text x="36.072" y="1.67" class="f">gendiff</text><text x="44.088" y="1.67" class="f">file1</text></svg><svg x="2703"><use xlink:href="#a"/><use xlink:href="#b" x="49.996"/><text y="1.67" class="f">[</text><text x="1.002" y="1.67" class="g">sadlaboka</text><text x="10.02" y="1.67" class="h">@</text><text x="11.022" y="1.67" class="f">HOME-PC</text><text x="19.038" y="1.67" class="f">fixtures]</text><text x="28.056" y="1.67" class="i">(main)</text><text x="34.068" y="1.67" class="f">$</text><text x="36.072" y="1.67" class="f">gendiff</text><text x="44.088" y="1.67" class="f">file1.</text></svg><svg x="2862"><use xlink:href="#a"/><use xlink:href="#b" x="50.996"/><text y="1.67" class="f">[</text><text x="1.002" y="1.67" class="g">sadlaboka</text><text x="10.02" y="1.67" class="h">@</text><text x="11.022" y="1.67" class="f">HOME-PC</text><text x="19.038" y="1.67" class="f">fixtures]</text><text x="28.056" y="1.67" class="i">(main)</text><text x="34.068" y="1.67" class="f">$</text><text x="36.072" y="1.67" class="f">gendiff</text><text x="44.088" y="1.67" class="f">file1.y</text></svg><svg x="3021"><use xlink:href="#a"/><use xlink:href="#b" x="51.996"/><text y="1.67" class="f">[</text><text x="1.002" y="1.67" class="g">sadlaboka</text><text x="10.02" y="1.67" class="h">@</text><text x="11.022" y="1.67" class="f">HOME-PC</text><text x="19.038" y="1.67" class="f">fixtures]</text><text x="28.056" y="1.67" class="i">(main)</text><text x="34.068" y="1.67" class="f">$</text><text x="36.072" y="1.67" class="f">gendiff</text><text x="44.088" y="1.67" class="f">file1.ym</text></svg><svg x="3180"><use xlink:href="#a"/><use xlink:href="#b" x="52.996"/><use xlink:href="#3"/></svg><svg x="3339"><use xlink:href="#a"/><use xlink:href="#b" x="53.996"/><use xlink:href="#3"/></svg><svg x="3498"><use xlink:href="#a"/><use xlink:href="#b" x="54.996"/><text y="1.67" class="f">[</text><text x="1.002" y="1.67" class="g">sadlaboka</text><text x="10.02" y="1.67" class="h">@</text><text x="11.022" y="1.67" class="f">HOME-PC</text><text x="19.038" y="1.67" class="f">fixtures]</text><text x="28.056" y="1.67" class="i">(main)</text><text x="34.068" y="1.67" class="f">$</text><text x="36.072" y="1.67" class="f">gendiff</text><text x="44.088" y="1.67" class="f">file1.yml</text><text x="54.108" y="1.67" class="f">f</text></svg><svg x="3657"><use xlink:href="#a"/><use xlink:href="#b" x="55.996"/><text y="1.67" class="f">[</text><text x="1.002" y="1.67" class="g">sadlaboka</text><text x="10.02" y="1.67" class="h">@</text><text x="11.022" y="1.67" class="f">HOME-PC</text><text x="19.038" y="1.67" class="f">fixtures]</text><text x="28.056" y="1.67" class="i">(main)</text><text x="34.068" y="1.67" class="f">$</text><text x="36.072" y="1.67" class="f">gendiff</text><text x="44.088" y="1.67" class="f">file1.yml</text><text x="54.108" y="1.67" class="f">fi</text></svg><svg x="3816"><use xlink:href="#a"/><use xlink:href="#b" x="56.996"/><text y="1.67" class="f">[</text><text x="1.002" y="1.67" class="g">sadlaboka</text><text x="10.02" y="1.67" class="h">@</text><text x="11.022" y="1.67" class="f">HOME-PC</text><text x="19.038" y="1.67" class="f">fixtures]</text><text x="28.056" y="1.67" class="i">(main)</text><text x="34.068" y="1.67" class="f">$</text><text x="36.072" y="1.67" class="f">gendiff</text><text x="44.088" y="1.67" class="f">file1.yml</text><text x="54.108" y="1.67" class="f">fil</text></svg><svg x="3975"><use xlink:href="#a"/><use xlink:href="#b" x="57.996"/><text y="1.67" class="f">[</text><text x="1.002" y="1.67" class="g">sadlaboka</text><text x="10.02" y="1.67" class="h">@</text><text x="11.022" y="1.67" class="f">HOME-PC</text><text x="19.038" y="1.67" class="f">fixtures]</text><text x="28.056" y="1.67" class="i">(main)</text><text x="34.068" y="1.67" class="f">$</text><text x="36.072" y="1.67" class="f">gendiff</text><text x="44.088" y="1.67" class="f">file1.yml</text><text x="54.108" y="1.67" class="f">file</text></svg><svg x="4134"><use xlink:href="#a"/><use xlink:href="#b" x="58.996"/><text y="1.67" class="f">[</text><text x="1.002" y="1.67" class="g">sadlaboka</text><text x="10.02" y="1.67" class="h">@</text><text x="11.022" y="1.67" class="f">HOME-PC</text><text x="19.038" y="1.67" class="f">fixtures]</text><text x="28.056" y="1.67" class="i">(main)</text><text x="34.068" y="1.67" class="f">$</text><text x="36.072" y="1.67" class="f">gendiff</text><text x="44.088" y="1.67" class="f">file1.yml</text><text x="54.108" y="1.67" class="f">file2</text></svg><svg x="4293"><use xlink:href="#a"/><use xlink:href="#b" x="59.996"/><text y="1.67" class="f">[</text><text x="1.002" y="1.67" class="g">sadlaboka</text><text x="10.02" y="1.67" class="h">@</text><text x="11.022" y="1.67" class="f">HOME-PC</text><text x="19.038" y="1.67" class="f">fixtures]</text><text x="28.056" y="1.67" class="i">(main)</text><text x="34.068" y="1.67" class="f">$</text><text x="36.072" y="1.67" class="f">gendiff</text><text x="44.088" y="1.67" class="f">file1.yml</text><text x="54.108" y="1.67" class="f">file2.</text></svg><svg x="4452"><use xlink:href="#a"/><use xlink:href="#b" x="60.996"/><text y="1.67" class="f">[</text><text x="1.002" y="1.67" class="g">sadlaboka</text><text x="10.02" y="1.67" class="h">@</text><text x="11.022" y="1.67" class="f">HOME-PC</text><text x="19.038" y="1.67" class="f">fixtures]</text><text x="28.056" y="1.67" class="i">(main)</text><text x="34.068" y="1.67" class="f">$</text><text x="36.072" y="1.67" class="f">gendiff</text><text x="44.088" y="1.67" class="f">file1.yml</text><text x="54.108" y="1.67" class="f">file2.y</text></svg><svg x="4611"><use xlink:href="#a"/><use xlink:href="#b" x="61.996"/><text y="1.67" class="f">[</text><text x="1.002" y="1.67" class="g">sadlaboka</text><text x="10.02" y="1.67" class="h">@</text><text x="11.022" y="1.67" class="f">HOME-PC</text><text x="19.038" y="1.67" class="f">fixtures]</text><text x="28.056" y="1.67" class="i">(main)</text><text x="34.068" y="1.67" class="f">$</text><text x="36.072" y="1.67" class="f">gendiff</text><text x="44.088" y="1.67" class="f">file1.yml</text><text x="54.108" y="1.67" class="f">file2.ya</text></svg><svg x="4770"><use xlink:href="#a"/><use xlink:href="#b" x="62.996"/><text y="1.67" class="f">[</text><text x="1.002" y="1.67" class="g">sadlaboka</text><text x="10.02" y="1.67" class="h">@</text><text x="11.022" y="1.67" class="f">HOME-PC</text><text x="19.038" y="1.67" class="f">fixtures]</text><text x="28.056" y="1.67" class="i">(main)</text><text x="34.068" y="1.67" class="f">$</text><text x="36.072" y="1.67" class="f">gendiff</text><text x="44.088" y="1.67" class="f">file1.yml</text><text x="54.108" y="1.67" class="f">file2.yam</text></svg><svg x="4929"><use xlink:href="#a"/><use xlink:href="#b" x="63.996"/><use xlink:href="#4"/></svg><svg x="5088"><use xlink:href="#a"/><use xlink:href="#b" x="-.004" y="2.146"/><use xlink:href="#4"/></svg><svg x="5247"><use xlink:href="#a"/><use xlink:href="#b" x="-.004" y="2.146"/><use xlink:href="#4"/></svg><svg x="5406"><use xlink:href="#a"/><use xlink:href="#b" x="-.004" y="19.514"/><use xlink:href="#4"/><use xlink:href="#5" y="2.171"/><use xlink:href="#6" y="4.342"/><use xlink:href="#7" y="6.513"/><use xlink:href="#8" y="8.684"/><use xlink:href="#9" y="10.855"/><use xlink:href="#10" y="13.026"/><use xlink:href="#11" y="15.197"/><use xlink:href="#12" y="17.368"/></svg><svg x="5565"><use xlink:href="#a"/><use xlink:href="#b" x="-.004" y="19.514"/><use xlink:href="#4"/><use xlink:href="#5" y="2.171"/><use xlink:href="#6" y="4.342"/><use xlink:href="#7" y="6.513"/><use xlink:href="#8" y="8.684"/><use xlink:href="#9" y="10.855"/><use xlink:href="#10" y="13.026"/><use xlink:href="#11" y="15.197"/><use xlink:href="#12" y="17.368"/></svg><svg x="5724"><use xlink:href="#a"/><use xlink:href="#b" x="-.004" y="19.514"/><use xlink:href="#4"/><use xlink:href="#5" y="2.171"/><use xlink:href="#6" y="4.342"/><use xlink:href="#7" y="6.513"/><use xlink:href="#8" y="8.684"/><use xlink:href="#9" y="10.855"/><use xlink:href="#10" y="13.026"/><use xlink:href="#11" y="15.197"/><use xlink:href="#12" y="17.368"/></svg><svg x="5883"><use xlink:href="#a"/><use xlink:href="#b" x="35.996" y="19.514"/><use xlink:href="#4"/><use xlink:href="#5" y="2.171"/><use xlink:href="#6" y="4.342"/><use xlink:href="#7" y="6.513"/><use xlink:href="#8" y="8.684"/><use xlink:href="#9" y="10.855"/><use xlink:href="#10" y="13.026"/><use xlink:href="#11" y="15.197"/><use xlink:href="#12" y="17.368"/><use xlink:href="#1" y="19.539"/></svg><svg x="6042"><use xlink:href="#a"/><use xlink:href="#b" x="-.004" y="23.856"/><use xlink:href="#4"/><use xlink:href="#5" y="2.171"/><use xlink:href="#6" y="4.342"/><use xlink:href="#7" y="6.513"/><use xlink:href="#8" y="8.684"/><use xlink:href="#9" y="10.855"/><use xlink:href="#10" y="13.026"/><use xlink:href="#11" y="15.197"/><use xlink:href="#12" y="17.368"/><use xlink:href="#1" y="19.539"/><text y="23.38" class="f">exit</text></svg></svg></g></g></svg></svg>